<svg xmlns="http://www.w3.org/2000/svg" xmlns:xlink="http://www.w3.org/1999/xlink" width="500" height="500" viewBox="0 0 500 500">
  <defs>
    <clipPath id="clip-Mesa_de_trabajo_1">
      <rect width="500" height="500"/>
    </clipPath>
  </defs>
  <g id="Mesa_de_trabajo_1" data-name="Mesa de trabajo 1" clip-path="url(#clip-Mesa_de_trabajo_1)">
    <rect width="500" height="500" fill="#fff"/>
    <g id="Group_134" data-name="Group 134">
      <path id="Path_1" data-name="Path 1" d="M379.177,260.539H227.484V42.282H379.177Zm-147.693-4H375.177V46.282H231.484Z" fill="#ebebeb"/>
      <rect id="Rectangle_1" data-name="Rectangle 1" width="4" height="211.212" transform="translate(299.772 47.327)" fill="#ebebeb"/>
      <rect id="Rectangle_2" data-name="Rectangle 2" width="158.946" height="5.57" transform="translate(223.857 50.368)" fill="#ebebeb"/>
      <rect id="Rectangle_3" data-name="Rectangle 3" width="158.946" height="5.57" transform="translate(223.857 56.635)" fill="#ebebeb"/>
      <rect id="Rectangle_4" data-name="Rectangle 4" width="158.946" height="5.57" transform="translate(223.857 62.901)" fill="#ebebeb"/>
      <rect id="Rectangle_5" data-name="Rectangle 5" width="158.946" height="5.57" transform="translate(223.857 69.167)" fill="#ebebeb"/>
      <rect id="Rectangle_6" data-name="Rectangle 6" width="158.946" height="5.57" transform="translate(223.857 75.434)" fill="#ebebeb"/>
      <rect id="Rectangle_7" data-name="Rectangle 7" width="158.946" height="5.57" transform="translate(223.857 81.7)" fill="#ebebeb"/>
      <rect id="Rectangle_8" data-name="Rectangle 8" width="158.946" height="5.57" transform="translate(223.857 87.966)" fill="#ebebeb"/>
      <rect id="Rectangle_9" data-name="Rectangle 9" width="158.946" height="5.57" transform="translate(223.857 94.233)" fill="#ebebeb"/>
      <rect id="Rectangle_10" data-name="Rectangle 10" width="158.946" height="5.57" transform="translate(223.857 100.499)" fill="#ebebeb"/>
      <g id="Group_2" data-name="Group 2">
        <rect id="Rectangle_11" data-name="Rectangle 11" width="1" height="108.387" transform="translate(369.923 49.239)" fill="#263238"/>
        <path id="Path_2" data-name="Path 2" d="M372.2,162.284h-3.55l.89-5.1h1.77Z" fill="#263238"/>
      </g>
      <g id="Group_3" data-name="Group 3">
        <rect id="Rectangle_12" data-name="Rectangle 12" width="1" height="165.732" transform="translate(373.528 49.239)" fill="#263238"/>
        <path id="Path_3" data-name="Path 3" d="M375.8,218.72h-3.55l.89-5.1h1.77Z" fill="#263238"/>
      </g>
      <rect id="Rectangle_13" data-name="Rectangle 13" width="171.361" height="11.653" transform="translate(217.65 41.5)" fill="#dbdbdb"/>
      <path id="Path_4" data-name="Path 4" d="M150.714,177.77h-1.5v-1h.5v-.5h1Z" fill="#ebebeb"/>
      <path id="Path_5" data-name="Path 5" d="M147.19,177.77h-2.023v-1h2.023Zm-4.046,0H141.12v-1h2.024Zm-4.047,0h-2.024v-1H139.1Zm-4.048,0h-2.023v-1h2.023Zm-4.047,0h-2.023v-1H131Zm-4.046,0h-2.024v-1h2.024Zm-4.047,0h-2.024v-1h2.024Zm-4.047,0h-2.024v-1h2.024Zm-4.047,0h-2.024v-1h2.024Zm-4.047,0h-2.024v-1h2.024Zm-4.047,0H104.7v-1h2.024Zm-4.047,0H100.65v-1h2.024Zm-4.047,0H96.6v-1h2.023Z" fill="#ebebeb"/>
      <path id="Path_6" data-name="Path 6" d="M94.58,177.77h-1.5v-1.5h1v.5h.5Z" fill="#ebebeb"/>
      <path id="Path_7" data-name="Path 7" d="M94.08,174.247h-1v-2.024h1Zm0-4.047h-1v-2.024h1Zm0-4.047h-1v-2.024h1Zm0-4.048h-1v-2.023h1Zm0-4.046h-1v-2.024h1Zm0-4.047h-1v-2.024h1Zm0-4.047h-1v-2.024h1Zm0-4.047h-1V143.9h1Zm0-4.047h-1v-2.024h1Zm0-4.047h-1V135.8h1Zm0-4.047h-1v-2.024h1Zm0-4.047h-1v-2.023h1Zm0-4.047h-1V123.66h1Z" fill="#ebebeb"/>
      <path id="Path_8" data-name="Path 8" d="M94.08,121.636h-1v-1.5h1.5v1h-.5Z" fill="#ebebeb"/>
      <path id="Path_9" data-name="Path 9" d="M147.19,121.136h-2.023v-1h2.023Zm-4.046,0H141.12v-1h2.024Zm-4.047,0h-2.024v-1H139.1Zm-4.047,0h-2.024v-1h2.024Zm-4.047,0h-2.024v-1H131Zm-4.047,0h-2.024v-1h2.024Zm-4.047,0h-2.024v-1h2.024Zm-4.047,0h-2.024v-1h2.024Zm-4.047,0h-2.024v-1h2.024Zm-4.047,0h-2.023v-1h2.023Zm-4.047,0H104.7v-1h2.024Zm-4.047,0H100.65v-1h2.024Zm-4.047,0H96.6v-1h2.023Z" fill="#ebebeb"/>
      <path id="Path_10" data-name="Path 10" d="M150.714,121.636h-1v-.5h-.5v-1h1.5Z" fill="#ebebeb"/>
      <path id="Path_11" data-name="Path 11" d="M150.714,174.247h-1v-2.024h1Zm0-4.047h-1v-2.024h1Zm0-4.047h-1v-2.024h1Zm0-4.047h-1v-2.023h1Zm0-4.047h-1v-2.023h1Zm0-4.047h-1v-2.024h1Zm0-4.047h-1v-2.024h1Zm0-4.047h-1V143.9h1Zm0-4.047h-1v-2.023h1Zm0-4.047h-1V135.8h1Zm0-4.047h-1v-2.024h1Zm0-4.047h-1v-2.023h1Zm0-4.047h-1V123.66h1Z" fill="#ebebeb"/>
      <rect id="Rectangle_14" data-name="Rectangle 14" width="7.057" height="7.057" transform="translate(90.051 173.741)" fill="#fff"/>
      <path id="Path_12" data-name="Path 12" d="M97.608,181.3H89.551v-8.058h8.057Zm-7.057-1h6.057v-6.058H90.551Z" fill="#ebebeb"/>
      <rect id="Rectangle_15" data-name="Rectangle 15" width="7.057" height="7.057" transform="translate(90.051 145.424)" fill="#fff"/>
      <path id="Path_13" data-name="Path 13" d="M97.608,152.982H89.551v-8.058h8.057Zm-7.057-1h6.057v-6.058H90.551Z" fill="#ebebeb"/>
      <rect id="Rectangle_16" data-name="Rectangle 16" width="7.057" height="7.057" transform="translate(90.051 117.107)" fill="#fff"/>
      <path id="Path_14" data-name="Path 14" d="M97.608,124.665H89.551v-8.058h8.057Zm-7.057-1h6.057v-6.058H90.551Z" fill="#ebebeb"/>
      <rect id="Rectangle_17" data-name="Rectangle 17" width="7.057" height="7.057" transform="translate(146.685 173.741)" fill="#fff"/>
      <path id="Path_15" data-name="Path 15" d="M154.243,181.3h-8.058v-8.058h8.058Zm-7.058-1h6.058v-6.058h-6.058Z" fill="#ebebeb"/>
      <rect id="Rectangle_18" data-name="Rectangle 18" width="7.057" height="7.057" transform="translate(146.685 145.424)" fill="#fff"/>
      <path id="Path_16" data-name="Path 16" d="M154.243,152.982h-8.058v-8.058h8.058Zm-7.058-1h6.058v-6.058h-6.058Z" fill="#ebebeb"/>
      <rect id="Rectangle_19" data-name="Rectangle 19" width="7.057" height="7.057" transform="translate(146.685 117.107)" fill="#fff"/>
      <path id="Path_17" data-name="Path 17" d="M154.243,124.665h-8.058v-8.058h8.058Zm-7.058-1h6.058v-6.058h-6.058Z" fill="#ebebeb"/>
      <rect id="Rectangle_20" data-name="Rectangle 20" width="7.057" height="7.057" transform="translate(118.368 117.107)" fill="#fff"/>
      <path id="Path_18" data-name="Path 18" d="M125.926,124.665h-8.058v-8.058h8.058Zm-7.058-1h6.058v-6.058h-6.058Z" fill="#ebebeb"/>
      <rect id="Rectangle_21" data-name="Rectangle 21" width="7.057" height="7.057" transform="translate(118.368 173.741)" fill="#fff"/>
      <path id="Path_19" data-name="Path 19" d="M125.926,181.3h-8.058v-8.058h8.058Zm-7.058-1h6.058v-6.058h-6.058Z" fill="#ebebeb"/>
      <path id="Path_20" data-name="Path 20" d="M122.582,155.688h-11.3l-4.394,12.327h4.28V169.1h-8.732v-1.085h2.682l14.554-39.209h4.68l14.382,39.209h2.626V169.1H122.7v-1.085h4.052Zm-10.787-1.256h10.33l-4.965-14.953Z" fill="#dbdbdb"/>
      <path id="Path_21" data-name="Path 21" d="M428.776,193.829s-.2,11.124-7.318,23.741H411.423c-7.122-12.617-7.318-23.741-7.318-23.741,10.3-5.764,10.573-18.662,10.573-18.662h1.041v20.424a3.145,3.145,0,1,0,1.444,0V175.167h1.04S418.472,188.065,428.776,193.829Z" fill="#ebebeb"/>
      <rect id="Rectangle_22" data-name="Rectangle 22" width="14.826" height="6.24" transform="translate(409.028 216.347)" fill="#c7c7c7"/>
      <path id="Path_22" data-name="Path 22" d="M450.862,208.551h-1a33.421,33.421,0,1,0-66.843,0h-1a34.421,34.421,0,1,1,68.843,0Z" fill="#ebebeb"/>
      <rect id="Rectangle_23" data-name="Rectangle 23" width="68.618" height="1" transform="translate(381.744 173.715)" fill="#ebebeb"/>
      <rect id="Rectangle_24" data-name="Rectangle 24" width="7.057" height="7.057" transform="translate(378.99 205.022)" fill="#fff"/>
      <path id="Path_23" data-name="Path 23" d="M386.548,212.58H378.49v-8.058h8.058Zm-7.058-1h6.058v-6.058H379.49Z" fill="#ebebeb"/>
      <rect id="Rectangle_25" data-name="Rectangle 25" width="7.057" height="7.057" transform="translate(378.99 170.687)" fill="#fff"/>
      <path id="Path_24" data-name="Path 24" d="M386.548,178.244H378.49v-8.058h8.058Zm-7.058-1h6.058v-6.058H379.49Z" fill="#ebebeb"/>
      <rect id="Rectangle_26" data-name="Rectangle 26" width="7.057" height="7.057" transform="translate(446.834 205.022)" fill="#fff"/>
      <path id="Path_25" data-name="Path 25" d="M454.392,212.58h-8.058v-8.058h8.058Zm-7.058-1h6.058v-6.058h-6.058Z" fill="#ebebeb"/>
      <rect id="Rectangle_27" data-name="Rectangle 27" width="7.057" height="7.057" transform="translate(446.834 170.687)" fill="#fff"/>
      <path id="Path_26" data-name="Path 26" d="M454.392,178.244h-8.058v-8.058h8.058Zm-7.058-1h6.058v-6.058h-6.058Z" fill="#ebebeb"/>
      <rect id="Rectangle_28" data-name="Rectangle 28" width="26.481" height="11.19" transform="translate(38.727 274.42)" fill="#ebebeb"/>
      <rect id="Rectangle_29" data-name="Rectangle 29" width="26.481" height="11.19" transform="translate(23.955 288.53)" fill="#ebebeb"/>
      <rect id="Rectangle_30" data-name="Rectangle 30" width="26.481" height="11.19" transform="translate(434.792 288.53)" fill="#ebebeb"/>
      <rect id="Rectangle_31" data-name="Rectangle 31" width="26.481" height="11.19" transform="translate(420.021 70.064)" fill="#ebebeb"/>
      <rect id="Rectangle_32" data-name="Rectangle 32" width="26.481" height="11.19" transform="translate(434.792 84.174)" fill="#ebebeb"/>
      <rect id="Rectangle_33" data-name="Rectangle 33" width="26.481" height="11.19" transform="translate(38.727 70.064)" fill="#ebebeb"/>
      <path id="Path_27" data-name="Path 27" d="M384.056,358.255s16.928-3.838,26.206-12.387S424.723,322,424.723,322a145.53,145.53,0,0,0-18.984,4.987,32.02,32.02,0,0,0-5.744,8.121,38.949,38.949,0,0,1-.044-5.806,25.811,25.811,0,0,0-6.029,3.66C386.229,339.7,384.056,358.255,384.056,358.255Z" fill="#dbdbdb"/>
      <g id="Group_25" data-name="Group 25">
        <path id="Path_28" data-name="Path 28" d="M414.153,329.448c2.308-1.6,4.657-3.137,6.955-4.748a.133.133,0,0,0-.139-.226c-4.363,2.605-8.663,5.39-12.823,8.306-1.451,1.017-2.875,2.075-4.283,3.154.1-.167.2-.335.295-.5.508-.851,1.043-1.685,1.579-2.518a36,36,0,0,1,3.593-4.8c.05-.055-.035-.135-.083-.079-1.316,1.519-2.633,3.024-3.837,4.636-.573.767-1.1,1.561-1.609,2.372-.263.421-.517.846-.76,1.279-.082.144-.171.289-.254.437-2.189,1.718-4.32,3.511-6.355,5.406q-1.883,1.755-3.635,3.633c.653-2.048,1.225-4.12,1.985-6.137.026-.069-.088-.1-.112-.028-.737,2.115-1.543,4.241-2.113,6.415-1.3,1.4-2.538,2.853-3.706,4.363.021-.092.04-.185.061-.275.192-.8.392-1.594.606-2.386.412-1.532.861-3.053,1.378-4.553a26.429,26.429,0,0,1,4.547-8.589c.048-.057-.035-.137-.083-.08a33.016,33.016,0,0,0-6.483,13.538q-.271,1.081-.516,2.17c-.087.383-.189.775-.254,1.17-.512.691-1.014,1.39-1.495,2.105a73.383,73.383,0,0,0-7.162,14.046,162.107,162.107,0,0,0-5.426,16.913c-.03.112.138.151.174.043,3.31-9.9,6.692-19.952,12.359-28.807,1.2-1.869,2.492-3.67,3.865-5.408a32.011,32.011,0,0,0,8.233-1.639,36.474,36.474,0,0,0,8.25-3.985,50.577,50.577,0,0,0,4.228-3.194.057.057,0,1,0-.072-.088,33.788,33.788,0,0,1-7.759,4.694,42.292,42.292,0,0,1-8.54,2.865c-1.25.272-2.517.473-3.785.646a71.79,71.79,0,0,1,4.992-5.531c.571-.57,1.163-1.116,1.75-1.668a40.186,40.186,0,0,1,6.258-3.584c2.773-1.34,5.5-2.76,8.249-4.156,1.548-.788,3.087-1.6,4.648-2.357.067-.033.006-.13-.06-.1-2.782,1.344-5.608,2.6-8.416,3.886-2.643,1.211-5.317,2.426-7.854,3.851-.109.062-.212.128-.319.191,2.292-2,4.665-3.9,7.094-5.733C409.564,332.707,411.84,331.048,414.153,329.448Z" fill="#a6a6a6"/>
        <path id="Path_29" data-name="Path 29" d="M413.191,338.175c-1.377.6-2.779,1.139-4.141,1.775-1.4.655-2.73,1.423-4.06,2.21-.058.035,0,.117.055.088,1.35-.645,2.717-1.25,4.053-1.922,1.369-.689,2.723-1.425,4.126-2.04C413.291,338.256,413.259,338.146,413.191,338.175Z" fill="#a6a6a6"/>
      </g>
      <path id="Path_30" data-name="Path 30" d="M329.065,272.947a24.186,24.186,0,0,1,5.06,14.059c.055,1.518-.184,3.633-.36,6.121a40.17,40.17,0,0,1,11.046,9.441,20.012,20.012,0,0,0-11.163-2.672,33.388,33.388,0,0,0,.647,5.058,19,19,0,0,1,7.179,1.42A16.066,16.066,0,0,0,335,307.661c3.018,9.6,11.987,19.462,36.755,23.65a51.964,51.964,0,0,0-4.387-34.854C359.947,281.859,329.065,272.947,329.065,272.947Z" fill="#dbdbdb"/>
      <g id="Group_27" data-name="Group 27">
        <path id="Path_31" data-name="Path 31" d="M380.328,372.389q-.645-6.152-1.6-12.266a245.047,245.047,0,0,0-4.995-24.245,97.362,97.362,0,0,0-3.575-11.048,16.846,16.846,0,0,0,.092-1.982q.025-1.189.012-2.38-.027-2.38-.228-4.751a56.75,56.75,0,0,0-1.522-9.286c-.452-1.765-.979-3.5-1.5-5.248a.058.058,0,0,0-.111.033,68.3,68.3,0,0,1,1.829,9.269,87.178,87.178,0,0,1,.832,9.3q.046,1.277.048,2.555c0,.36-.016.727-.029,1.094a79.668,79.668,0,0,0-4.173-8.639,105.041,105.041,0,0,0-8.478-12.682,5.375,5.375,0,0,0-.2-1.386q-.174-.829-.36-1.657-.381-1.7-.845-3.375c-.616-2.245-1.429-4.414-2.13-6.63a.058.058,0,0,0-.111.034c.654,2.194,1.089,4.466,1.591,6.7.248,1.1.49,2.21.733,3.316q.183.828.354,1.66c.008.039.015.083.022.123q-1.5-1.893-3.066-3.734c-4.73-5.546-9.916-10.663-15.135-15.743-.642-.624-1.3-1.233-1.95-1.848-.054-.052-.13.03-.079.083,4.987,5.2,9.9,10.467,14.55,15.976q1.658,1.963,3.262,3.976c-.562-.382-1.13-.753-1.69-1.119-1.44-.944-2.9-1.861-4.4-2.7s-3.017-1.665-4.561-2.43c-1.589-.787-3.286-1.428-4.819-2.319-.065-.039-.122.073-.055.1a35.824,35.824,0,0,1,4.519,2.5c1.508.894,3.013,1.795,4.493,2.734,1.456.923,2.919,1.833,4.365,2.772,1.205.783,2.391,1.638,3.64,2.361a117.1,117.1,0,0,1,7.935,11.549,84.939,84.939,0,0,1,4.1,7.779c-.3-.129-.6-.255-.888-.385l-2.267-1.007c-1.457-.647-2.92-1.278-4.382-1.913-2.777-1.208-5.6-2.318-8.323-3.644a37.52,37.52,0,0,1-4.447-2.469c-.062-.041-.116.059-.055.1,5.078,3.5,10.771,5.967,16.392,8.454l2.437,1.079c.669.3,1.34.627,2.03.886a86.928,86.928,0,0,1,4.189,11.478,233.546,233.546,0,0,1,5.388,23.961c1.421,8.09,2.38,16.234,3.124,24.411.093,1.021.185,2.041.3,3.06a.323.323,0,0,0,.645-.016C381.186,380.674,380.761,376.515,380.328,372.389Z" fill="#a6a6a6"/>
        <path id="Path_32" data-name="Path 32" d="M365.26,303.989c-.454-2.518-1.125-4.98-1.8-7.444a.058.058,0,0,0-.111.033c.627,2.419,1.075,4.886,1.53,7.342q.694,3.754,1.226,7.539c.006.043.072.044.069,0A66.715,66.715,0,0,0,365.26,303.989Z" fill="#a6a6a6"/>
        <path id="Path_33" data-name="Path 33" d="M354.586,310.818a44.742,44.742,0,0,0-5.387-3.031c-.9-.467-1.817-.91-2.731-1.353-.943-.456-1.922-.838-2.858-1.307-.066-.034-.122.067-.055.1.9.455,1.764,1.005,2.654,1.49.918.5,1.83,1.01,2.751,1.5,1.81.972,3.591,2.051,5.492,2.839A.138.138,0,0,0,354.586,310.818Z" fill="#a6a6a6"/>
      </g>
      <path id="Path_34" data-name="Path 34" d="M384.364,328.932s15.663-3.742,22.856-14.25c6.869-10.035,9.088-27.142,9.265-28.646-.283,1.38-3.514,16.331-14.179,23.295C394.142,314.667,386.252,319.053,384.364,328.932Z" fill="#a6a6a6" opacity="0.1"/>
      <path id="Path_35" data-name="Path 35" d="M398.821,301.867a20.026,20.026,0,0,0-5.775,9.512c-.008.032.039.049.049.017a23.381,23.381,0,0,1,5.8-9.443C398.952,301.9,398.874,301.816,398.821,301.867Z" fill="#a6a6a6"/>
      <g id="Group_29" data-name="Group 29">
        <path id="Path_36" data-name="Path 36" d="M384.364,328.932s15.663-3.742,22.856-14.25c6.869-10.035,9.088-27.142,9.265-28.646a.941.941,0,0,0,.018-.106s-7.511,10.68-15.408,13.4S382.1,311.477,384.364,328.932Z" fill="#dbdbdb"/>
        <path id="Path_37" data-name="Path 37" d="M413.727,291.82a63.9,63.9,0,0,1-4.842,8.281,33.242,33.242,0,0,1-6.444,6.63c-2.128,1.69-4.377,3.221-6.531,4.878.016-.025.031-.053.048-.078.4-.6.837-1.183,1.283-1.753.9-1.146,1.877-2.228,2.863-3.3,1.947-2.112,3.934-4.184,5.678-6.47a23.875,23.875,0,0,0,2.512-4.046c.033-.066-.077-.1-.109-.037-2.54,5.294-7.615,8.681-11.236,13.153a23.36,23.36,0,0,0-1.447,1.979,8.171,8.171,0,0,0-.9,1.593,32.937,32.937,0,0,0-5.344,5.4,21.867,21.867,0,0,1,.629-3.041,15.355,15.355,0,0,1,1.66-3.966c.039-.064-.058-.128-.1-.064a18.675,18.675,0,0,0-1.826,3.941,13.771,13.771,0,0,0-.57,3.383l-.009.01a30.831,30.831,0,0,0-2.116,3.291c.065-.335.128-.669.194-1,.311-1.561.655-3.118,1.06-4.657a27.913,27.913,0,0,1,3.768-8.825c.042-.061-.054-.125-.1-.064a33.625,33.625,0,0,0-4.174,8.634c-.5,1.537-.9,3.1-1.251,4.677-.172.771-.327,1.544-.475,2.32-.076.4-.163.811-.228,1.223a56.415,56.415,0,0,0-3.613,10.619,155.907,155.907,0,0,0-3.34,19.806,164.564,164.564,0,0,0-1.08,21.03c.014.881.066,1.76.115,2.64.013.227.352.26.362.021.154-3.475.244-6.954.45-10.427s.508-6.944.88-10.407a185,185,0,0,1,3.265-20.251c1.27-5.727,2.916-11.491,6.046-16.509a31.048,31.048,0,0,1,5.651-6.72c2.2-1.972,4.6-3.7,6.913-5.525a37.912,37.912,0,0,0,6.344-6.1,50,50,0,0,0,4.982-8.085c.369-.71.748-1.415,1.122-2.123C413.857,291.819,413.76,291.755,413.727,291.82Z" fill="#a6a6a6"/>
        <path id="Path_38" data-name="Path 38" d="M411.023,294.117a52.756,52.756,0,0,1-3.49,6.1.043.043,0,0,0,.072.048,42.419,42.419,0,0,0,3.527-6.113C411.164,294.088,411.054,294.051,411.023,294.117Z" fill="#a6a6a6"/>
      </g>
      <path id="Path_39" data-name="Path 39" d="M326.882,322s-.249,22.26,13.062,28.686,20.446,1.073,29.489,3.227a.033.033,0,0,1-.016-.012c-.35-.531-6.8-9.809-17.072-12.364C341.785,338.908,330.084,331.279,326.882,322Z" fill="#dbdbdb"/>
      <path id="Path_40" data-name="Path 40" d="M326.882,322s-.249,22.26,13.062,28.686,20.446,1.073,29.489,3.227a.033.033,0,0,1-.016-.012,50.327,50.327,0,0,0-15.132-4.464C345.893,348.431,329.859,342.961,326.882,322Z" fill="#a6a6a6" opacity="0.1"/>
      <g id="Group_31" data-name="Group 31">
        <path id="Path_41" data-name="Path 41" d="M370.31,354.313a22.416,22.416,0,0,0-5.294-3.585c-.285-.137-.58-.248-.87-.371-.14-.178-.289-.347-.446-.511-.4-.417-.815-.815-1.253-1.19a18.6,18.6,0,0,0-2.677-1.932c-2.206-1.3-4.622-2.2-6.877-3.408-.065-.035-.121.067-.055.1,1.114.579,2.193,1.217,3.277,1.85,1.055.616,2.134,1.2,3.16,1.866a22.8,22.8,0,0,1,2.634,1.974c.234.205.459.428.684.654a35.6,35.6,0,0,0-4.5-1.195c-2.437-.492-4.9-.841-7.333-1.36a34.238,34.238,0,0,1-3.531-.953c-1.1-.889-2.207-1.773-3.253-2.737a26.667,26.667,0,0,1-3.441-3.815c-.044-.06-.143,0-.1.061a40.7,40.7,0,0,0,5.457,6.021c-.573-.218-1.142-.451-1.7-.706a27.473,27.473,0,0,1-11.342-9.436c-.041-.061-.14,0-.1.061a31.122,31.122,0,0,0,9.176,8.808,27.535,27.535,0,0,0,5.8,2.744,53.86,53.86,0,0,0,7.2,1.7,50.841,50.841,0,0,1,7.054,1.678,21.26,21.26,0,0,1,5.916,3.112,27.685,27.685,0,0,1,7.976,9.89,49.692,49.692,0,0,1,4.392,16.276c.028.238.4.238.38-.009C380.024,370.547,377.523,360.81,370.31,354.313Z" fill="#a6a6a6"/>
        <path id="Path_42" data-name="Path 42" d="M354.864,347.054a7.661,7.661,0,0,0-2.736-2.48,10.05,10.05,0,0,1-3.255-2.693c-.044-.06-.143,0-.1.061a11.028,11.028,0,0,0,2.874,2.573,10.036,10.036,0,0,1,3.131,2.59A.049.049,0,0,0,354.864,347.054Z" fill="#a6a6a6"/>
      </g>
      <path id="Path_43" data-name="Path 43" d="M361.925,370.742l.606,12.241,1.856,37.4h27.922l1.857-37.4.606-12.241Z" fill="#ebebeb"/>
      <path id="Path_44" data-name="Path 44" d="M361.925,370.742l.606,12.241h31.635l.606-12.241Z" fill="#dbdbdb"/>
      <rect id="Rectangle_34" data-name="Rectangle 34" width="36.76" height="11.677" transform="translate(396.729 377.31) rotate(180)" fill="#ebebeb"/>
      <line id="Line_1" data-name="Line 1" x2="366.54" transform="translate(66.73 420.757)" fill="none" stroke="#263238" stroke-linecap="round" stroke-linejoin="round" stroke-width="1"/>
      <ellipse id="Ellipse_1124" data-name="Ellipse 1124" cx="44.284" cy="8.499" rx="44.284" ry="8.499" transform="translate(41.801 447.644)" fill="#ebebeb"/>
      <ellipse id="Ellipse_1125" data-name="Ellipse 1125" cx="160.447" cy="15.735" rx="160.447" ry="15.735" transform="translate(89.553 439.734)" fill="#ebebeb"/>
      <g id="Group_39" data-name="Group 39">
        <path id="Path_313" data-name="Path 313" d="M237.659,324.43l2.586,15.508,17.519,94.608h2.824l-12.739-94.608-1.883-15.508Z" fill="#c7c7c7"/>
      </g>
      <path id="Path_314" data-name="Path 314" d="M245.966,324.43h-8.307l2.586,15.508h7.6Z" fill="#a6a6a6"/>
      <g id="Group_42" data-name="Group 42">
        <path id="Path_315" data-name="Path 315" d="M182.644,434.547h2.824l17.519-94.608,2.586-15.508h-8.307l-1.883,15.508Z" fill="#c7c7c7"/>
      </g>
      <path id="Path_316" data-name="Path 316" d="M197.266,324.43l-1.883,15.508h7.6l2.586-15.508Z" fill="#a6a6a6"/>
      <g id="Group_45" data-name="Group 45">
        <path id="Path_317" data-name="Path 317" d="M130.1,434.547h2.824l17.519-94.608,2.586-15.508h-8.307l-1.882,15.508Z" fill="#c7c7c7"/>
      </g>
      <path id="Path_318" data-name="Path 318" d="M142.837,339.939h7.6l2.586-15.508h-8.307Z" fill="#a6a6a6"/>
      <path id="Path_319" data-name="Path 319" d="M134.576,331.717H262.947V318.191H214.891L198.741,204.224H139.47Z" fill="#c7c7c7"/>
      <path id="Path_320" data-name="Path 320" d="M142.055,318.191H262.947v13.526H141.574Z" fill="#dbdbdb"/>
      <path id="Path_321" data-name="Path 321" d="M134.576,331.717h7l4.561-127.493H139.47Z" fill="#dbdbdb"/>
      <g id="Group_52" data-name="Group 52">
        <path id="Path_322" data-name="Path 322" d="M256.354,452.572c-2.5.237-70.467-15.951-72.609-18.156-.262-.244,1.074-6.422,3.037-14.847l.038-.165c1.225-5.341,21.025-48.539,21.025-48.539L251.9,383.147l-20.015,40.081s8.292,5.985,15.4,11.669c.007.011.017.014.015.024,4.391,3.49,8.175,6.625,8.979,7.641C258.36,445.214,258.846,452.353,256.354,452.572Z" fill="#ad6359"/>
        <path id="Path_323" data-name="Path 323" d="M256.351,452.568c-2.49.24-70.46-15.95-72.61-18.15-.26-.25,1.08-6.42,3.04-14.85l.04-.16c.45-1.99,3.5-9.25,7.13-17.57,7.25,1.95,33.24,8.97,42.68,11.89l-4.74,9.5s8.29,5.99,15.4,11.67c0,.01.01.01.01.02,4.39,3.49,8.18,6.63,8.98,7.64C258.361,445.218,258.851,452.358,256.351,452.568Z" fill="#ebebeb"/>
        <g id="Group_51" data-name="Group 51">
          <path id="Path_324" data-name="Path 324" d="M256.577,452.895c-2.568.223-70.586-16.153-72.786-18.416-.838-.855.666-11.588,4.39-22.96l43.839,10.609s22.39,17.723,24.536,20.465S259.144,452.672,256.577,452.895Z" fill="#700"/>
          <g id="Group_50" data-name="Group 50">
            <g id="Group_49" data-name="Group 49">
              <path id="Path_325" data-name="Path 325" d="M256.256,449.939c-11.334-3.025-57.336-14.156-68.77-16.285-.093-.017-.108.045-.017.072,11.169,3.243,57.259,14,68.743,16.4C256.454,450.176,256.5,450,256.256,449.939Z" fill="#263238"/>
              <path id="Path_326" data-name="Path 326" d="M252.77,439.093a9.424,9.424,0,0,0-7.492,1.142,9.129,9.129,0,0,0-4.013,5.475c-.014.068.11.1.137.032a10.888,10.888,0,0,1,11.334-6.506A.074.074,0,0,0,252.77,439.093Z" fill="#263238"/>
              <path id="Path_327" data-name="Path 327" d="M235.322,424.132c-4.549-1.162-10.228-.825-13.962,2.225-.145.118.025.322.178.285a64.86,64.86,0,0,1,13.727-1.929A.3.3,0,0,0,235.322,424.132Z" fill="#263238"/>
              <path id="Path_328" data-name="Path 328" d="M238.514,426.354c-4.548-1.162-10.227-.825-13.962,2.225-.144.118.026.322.178.284a64.933,64.933,0,0,1,13.727-1.928A.3.3,0,0,0,238.514,426.354Z" fill="#263238"/>
              <path id="Path_329" data-name="Path 329" d="M241.706,428.576c-4.548-1.162-10.227-.825-13.961,2.224-.145.118.025.322.177.285a64.944,64.944,0,0,1,13.728-1.929A.3.3,0,0,0,241.706,428.576Z" fill="#263238"/>
              <path id="Path_330" data-name="Path 330" d="M244.9,430.8c-4.549-1.162-10.227-.825-13.962,2.225-.145.118.025.322.178.285a64.86,64.86,0,0,1,13.727-1.929A.3.3,0,0,0,244.9,430.8Z" fill="#263238"/>
              <path id="Path_331" data-name="Path 331" d="M193,423.524c-5.124-1.218-7.025,6.743-1.893,7.963S198.13,424.744,193,423.524Z" fill="#b8b8b8"/>
            </g>
            <path id="Path_332" data-name="Path 332" d="M243.185,413.142c-1.849-2.471-5.209-1.3-7.113.346a24.634,24.634,0,0,0-6.956,10.671.123.123,0,0,0,.111.165.573.573,0,0,0,.732.566c3.79-1.465,8.024-2.562,11.252-5.146C243.1,418.235,244.934,415.48,243.185,413.142Zm-7.934,8.352c-1.847.766-3.72,1.436-5.537,2.27a73.581,73.581,0,0,1,4.2-6.143,26.692,26.692,0,0,1,2.408-2.677c1.355-1.269,6.753-4.005,6.011,1.07C241.924,418.812,237.452,420.581,235.251,421.494Z" fill="#263238"/>
            <path id="Path_333" data-name="Path 333" d="M217.37,423.122c3.827,1.567,8.2,1.422,12.248,1.756a.572.572,0,0,0,.542-.749.124.124,0,0,0,.06-.19,24.618,24.618,0,0,0-9.689-8.27c-2.291-1.041-5.846-1.215-6.921,1.678C212.594,420.084,215.136,422.207,217.37,423.122Zm-2.13-3.261c-2.145-4.658,3.806-3.559,5.464-2.725a26.409,26.409,0,0,1,3.066,1.887,73.538,73.538,0,0,1,5.765,4.706c-1.979-.286-3.965-.4-5.954-.613C221.212,422.862,216.423,422.429,215.24,419.861Z" fill="#263238"/>
          </g>
        </g>
      </g>
      <g id="Group_54" data-name="Group 54">
        <path id="Path_334" data-name="Path 334" d="M235.783,418,189,405.479s41.108-85.257,37.789-89.948c-1.66-2.345-45.5-4.322-59.1-16.572-17.664-15.913-4.809-39.042-4.809-39.042h49.029s-.9,10.229.969,11.83c1.23,1.067,59.452,7.713,65.277,27.6C285.3,323.734,235.783,418,235.783,418Z" fill="#37474f"/>
        <g id="Group_53" data-name="Group 53">
          <path id="Path_335" data-name="Path 335" d="M236.6,411.144a29.381,29.381,0,0,0-3.84-1.45c-1.358-.47-2.717-.944-4.082-1.391-2.689-.88-5.387-1.723-8.1-2.506-5.471-1.578-10.952-3.125-16.465-4.557-2.873-.746-9.029-2.374-9.412-2.317-.184.028-.226.335-.063.395,5.324,1.936,10.731,3.6,16.138,5.278s10.806,3.334,16.279,4.746c1.516.391,3.042.739,4.563,1.112a34.2,34.2,0,0,0,4.845,1.064C236.619,411.533,236.775,411.232,236.6,411.144Z" fill="#263238"/>
        </g>
        <path id="Path_336" data-name="Path 336" d="M235.291,311.719c-.96-.871-2.435-1.018-3.662-1.261q-10.556-2.09-21.107-4.191c-6.584-1.3-13.206-2.493-19.755-3.961-5.422-1.215-10.926-2.8-15.555-5.9a22.81,22.81,0,0,1-9.258-12.9,40.766,40.766,0,0,1-.766-16.2c.166-1.313.446-2.62.731-3.913.022-.1-.135-.136-.156-.038-2.092,9.992-2.6,21.648,4.687,29.878,3.552,4.012,8.523,6.454,13.619,8.093,5.752,1.848,11.79,2.822,17.712,3.994q10.555,2.091,21.111,4.175c3.385.667,6.828,1.212,10.181,2.019a3.472,3.472,0,0,1,1.819.871,2.644,2.644,0,0,1,.226,2.463c-.391,1.657-.888,3.293-1.416,4.914-4.252,13.073-34.082,75-34.89,76.421-.085.15.151.276.239.129,6.832-11.377,29.063-59.183,33.718-71.532a78.881,78.881,0,0,0,3.069-9.626C236.118,313.968,236.3,312.635,235.291,311.719Z" fill="#263238"/>
      </g>
      <path id="Path_337" data-name="Path 337" d="M250.57,387.976l-30.96-49.8c4.97-11.99,8.21-21.19,7.18-22.64-.81-1.14-11.57-2.2-23.98-4.39l-31.85-51.23h40.95s-.89,10.23.97,11.83c1.23,1.07,59.45,7.71,65.28,27.6C282.68,314.776,264.52,358.166,250.57,387.976Z" fill="#263238"/>
      <g id="Group_59" data-name="Group 59">
        <path id="Path_338" data-name="Path 338" d="M326.338,457.624c-2.4.73-72.233-1.6-74.77-3.335-.306-.188-.227-6.508.02-15.155l0-.169c.137-5.479-.153-52.332-.153-52.332l43.722.936,1.356,46.17s9.317,4.215,17.416,8.369c.009.01.019.011.019.021,5,2.546,9.331,4.865,10.32,5.7C326.839,450.014,328.736,456.914,326.338,457.624Z" fill="#ad6359"/>
        <path id="Path_339" data-name="Path 339" d="M326.34,457.622c-2.4.728-72.235-1.6-74.775-3.337-.305-.182-.225-6.506.02-15.147l0-.17c.009-.381.018-.771.017-1.161q.018-.422.006-.84c.008-.411.006-.831,0-1.251.017-3.642.009-9.554-.015-16.036l44.537,1.035.38,13.024s9.314,4.217,17.415,8.369c.011.01.021.009.021.019,4.994,2.549,9.332,4.867,10.316,5.7C326.834,450.014,328.741,456.913,326.34,457.622Z" fill="#ebebeb"/>
        <g id="Group_58" data-name="Group 58">
          <path id="Path_340" data-name="Path 340" d="M326.62,457.9c-2.472.73-72.388-1.775-74.995-3.555-.992-.67-1.654-11.488-.27-23.375l45.074,1.669s25.471,12.911,28.119,15.17S329.092,457.167,326.62,457.9Z" fill="#700"/>
          <g id="Group_57" data-name="Group 57">
            <g id="Group_56" data-name="Group 56">
              <path id="Path_341" data-name="Path 341" d="M325.718,455.064c-11.71-.708-59.007-2.457-70.636-2.267-.1,0-.1.066,0,.074,11.591.955,58.9,2.321,70.632,2.384C325.959,455.257,325.965,455.078,325.718,455.064Z" fill="#263238"/>
              <path id="Path_342" data-name="Path 342" d="M320.141,445.129a9.421,9.421,0,0,0-7.114,2.611,9.123,9.123,0,0,0-2.843,6.164c0,.069.128.076.142,0a10.885,10.885,0,0,1,9.81-8.632A.074.074,0,0,0,320.141,445.129Z" fill="#263238"/>
              <path id="Path_343" data-name="Path 343" d="M300.064,433.942c-4.689-.233-10.187,1.228-13.239,4.96-.119.144.089.31.23.244a64.884,64.884,0,0,1,13.069-4.624A.3.3,0,0,0,300.064,433.942Z" fill="#263238"/>
              <path id="Path_344" data-name="Path 344" d="M303.635,435.483c-4.689-.233-10.187,1.228-13.24,4.96-.118.145.089.311.231.244a64.859,64.859,0,0,1,13.069-4.623A.3.3,0,0,0,303.635,435.483Z" fill="#263238"/>
              <path id="Path_345" data-name="Path 345" d="M307.206,437.025c-4.689-.233-10.187,1.228-13.24,4.96-.118.144.089.31.231.244a64.839,64.839,0,0,1,13.069-4.624A.3.3,0,0,0,307.206,437.025Z" fill="#263238"/>
              <path id="Path_346" data-name="Path 346" d="M310.776,438.567c-4.689-.234-10.186,1.227-13.239,4.959-.118.145.089.311.231.244a64.85,64.85,0,0,1,13.068-4.623A.3.3,0,0,0,310.776,438.567Z" fill="#263238"/>
              <path id="Path_347" data-name="Path 347" d="M258.466,441.772c-5.263-.173-5.542,8.007-.269,8.18S263.739,441.945,258.466,441.772Z" fill="#b8b8b8"/>
            </g>
            <path id="Path_348" data-name="Path 348" d="M305.582,421.606c-2.3-2.054-5.364-.237-6.9,1.755a24.63,24.63,0,0,0-4.692,11.843.123.123,0,0,0,.141.139.573.573,0,0,0,.83.409c3.423-2.19,7.354-4.108,10-7.284C306.507,426.614,307.761,423.549,305.582,421.606Zm-6.113,9.764c-1.657,1.118-3.359,2.148-4.974,3.328a74.079,74.079,0,0,1,2.892-6.857,26.589,26.589,0,0,1,1.827-3.1c1.075-1.513,5.82-5.269,6.1-.148C305.474,427.413,301.444,430.037,299.469,431.37Z" fill="#263238"/>
            <path id="Path_349" data-name="Path 349" d="M282.271,436.525c4.062.774,8.316-.238,12.352-.717a.573.573,0,0,0,.382-.842.124.124,0,0,0,.021-.2,24.63,24.63,0,0,0-11.142-6.176c-2.452-.564-5.97-.026-6.448,3.023C276.985,434.5,279.9,436.074,282.271,436.525Zm-2.737-2.771c-3.03-4.138,3.021-4.246,4.812-3.758a26.394,26.394,0,0,1,3.38,1.239,73.476,73.476,0,0,1,6.587,3.464c-2,.113-3.966.4-5.957.584C285.984,435.506,281.2,436.035,279.534,433.754Z" fill="#263238"/>
          </g>
        </g>
      </g>
      <g id="Group_62" data-name="Group 62">
        <path id="Path_350" data-name="Path 350" d="M299.144,427.2l-49.3-1.45s3.121-84.025-.6-89.081c-4.955-6.74-77.037-8.731-91.858-30.674-13.311-19.708-.78-46.667-.78-46.667h54.632a112.711,112.711,0,0,1-5.57,17.04s65.392,14.089,83.213,34.806C300.913,325.16,299.144,427.2,299.144,427.2Z" fill="#37474f"/>
        <g id="Group_61" data-name="Group 61">
          <path id="Path_351" data-name="Path 351" d="M215.382,272.916a26.129,26.129,0,0,0-4.669,1.346c-1.585.551-3.149,1.184-4.678,1.874a91.6,91.6,0,0,0-8.78,4.629c-.089.052-.007.176.082.133,3-1.447,6.089-2.736,9.183-3.962q2.233-.885,4.466-1.769a46.957,46.957,0,0,0,4.518-1.839C215.692,273.23,215.6,272.884,215.382,272.916Z" fill="#263238"/>
          <path id="Path_352" data-name="Path 352" d="M212.511,259.346c-.7,2.473-1.322,4.968-2.108,7.416-.36,1.123-.717,2.266-1.178,3.352-.389.917-.968,1.96-2.047,2.135-1.244.2-1.566-.867-1.435-1.886.146-1.137.471-2.272.73-3.387.3-1.286.6-2.571.872-3.863.137-.646.279-1.29.408-1.938.033-.163.191-1.4.29-1.757.01.031.028.06.067.056l.044-.005a.083.083,0,0,0,.077-.062c.016-.1.015-.118-.056-.188a.1.1,0,0,0-.113-.012c-.241.122-.268.446-.351.683-.22.624-.444,1.248-.647,1.878-.379,1.179-.751,2.362-1.089,3.554s-.668,2.384-1,3.576a5.635,5.635,0,0,0-.323,2.761,2.115,2.115,0,0,0,1.91,1.652c-.046.08-.1.155-.139.239-.116.241-.2.5-.3.75s-.195.509-.278.771a2.375,2.375,0,0,0-.083.383c-.02.144.005.286-.018.43a.208.208,0,0,0,.383.15c.069-.126.166-.221.243-.341a2.165,2.165,0,0,0,.19-.412c.093-.247.172-.493.243-.747s.155-.5.21-.754c.032-.151.042-.3.06-.458a2.871,2.871,0,0,0,1.453-.5,4.81,4.81,0,0,0,1.556-2.233c.406-1.026.73-2.091,1.053-3.145a46.728,46.728,0,0,0,1.826-7.982A.231.231,0,0,0,212.511,259.346Z" fill="#263238"/>
          <path id="Path_353" data-name="Path 353" d="M179.868,264.48c-.262,1.23-.442,2.475-.764,3.692-.314,1.191-.675,2.381-1.105,3.536a12.735,12.735,0,0,1-1.614,3.167,12.049,12.049,0,0,1-2.492,2.391,20.7,20.7,0,0,1-5.948,3.085,27.3,27.3,0,0,1-3.28.856c-.578.112-1.161.194-1.747.252a3.68,3.68,0,0,0-1.409.283.283.283,0,0,0,.012.486,5.062,5.062,0,0,0,2.585.159,19.027,19.027,0,0,0,2.78-.4,20.03,20.03,0,0,0,5.291-2.048,16.49,16.49,0,0,0,4.475-3.444,12.4,12.4,0,0,0,2.487-5.052,25.284,25.284,0,0,0,.968-6.933A.122.122,0,0,0,179.868,264.48Z" fill="#263238"/>
          <path id="Path_354" data-name="Path 354" d="M258.625,369.194q-.384-11.646-1.242-23.271c-.141-1.911-.276-3.824-.455-5.732a17.938,17.938,0,0,0-.83-4.371c-1.049-2.938-3.423-4.476-6.322-5.3-3.422-.975-6.974-1.6-10.466-2.274-3.569-.689-7.151-1.315-10.735-1.924-7.257-1.232-14.53-2.387-21.751-3.825a174.132,174.132,0,0,1-21.291-5.463c-6.39-2.139-12.931-4.743-17.96-9.371-10.822-9.959-10.749-26.109-8.99-39.571.248-1.9.539-3.795.825-5.691.015-.1-.137-.137-.151-.037-1.106,7.576-2.356,15.2-1.828,22.878a37.428,37.428,0,0,0,5.547,17.929c3.6,5.507,9.067,9.159,15.007,11.766a120.5,120.5,0,0,0,20.271,6.5c14.317,3.445,28.974,5.16,43.4,8.073q2.668.539,5.324,1.137a22.115,22.115,0,0,1,4.79,1.437c3.249,1.571,4.06,4.8,4.369,8.127.718,7.718,1.131,15.477,1.457,23.22.659,15.608.791,31.282.3,46.9q-.092,2.891-.206,5.781c-.007.172.255.163.265-.006C258.883,400.477,259.139,384.841,258.625,369.194Z" fill="#263238"/>
          <g id="Group_60" data-name="Group 60">
            <path id="Path_355" data-name="Path 355" d="M297.016,421.21a29.465,29.465,0,0,0-4.078-.466c-1.432-.123-2.866-.25-4.3-.349-2.822-.2-5.645-.352-8.472-.447-5.691-.19-11.384-.348-17.079-.387-2.969-.02-9.336-.091-9.693.058-.172.071-.138.379.036.4,5.635.575,11.285.863,16.938,1.168s11.293.587,16.946.616c1.566.008,3.131-.028,4.7-.039a34.2,34.2,0,0,0,4.958-.154C297.126,421.583,297.2,421.253,297.016,421.21Z" fill="#263238"/>
          </g>
        </g>
      </g>
      <path id="Path_356" data-name="Path 356" d="M210.038,213.275c4.934,21.083,6.227,36.349,12.213,40.281,4.827,3.173,11.607,5.4,18.579,6.959a173.77,173.77,0,0,0,22.6,3.229c2.34.2,4.288.317,5.669.415,3.419.218,9.017-22.359,6.6-25.113-.558-.629-2.811-1.116-5.971-1.517-10.641-1.335-31.594-1.647-32.843-2.838-1.3-1.246-10.016-15.6-17.664-29.064C211.9,192.742,206.9,199.878,210.038,213.275Z" fill="#ad6359"/>
      <g id="Group_66" data-name="Group 66">
        <path id="Path_357" data-name="Path 357" d="M262.239,261.881a83.016,83.016,0,0,0,10.167,3.745c2.765.692,10.779,2.47,11.843-.5.728-2.024-3.861-3.625-7.081-4.829-1.7-.634-3.819-2.307-3.366-3.4.791-1.909,5.162-.182,8.05,1.357,5.586,2.976,13.082,8.427,16.32,5.529,1.223-1.1-.313-2.951-2.528-4.745,3.562,2.054,7.34,3.708,8.747,2.545a1.839,1.839,0,0,0,.315-2.505,2.441,2.441,0,0,0,2.671-.518c1.088-1.226.472-2.953-.832-4.7a1.35,1.35,0,0,0,1-.713c2.261-3.741-10.118-13.786-14.3-14.615-12.309-2.451-25.25-.915-25.25-.915C263.346,241.627,262.229,261.873,262.239,261.881Z" fill="#ad6359"/>
        <g id="Group_65" data-name="Group 65">
          <path id="Path_358" data-name="Path 358" d="M279.762,249.844a19.919,19.919,0,0,1,8.254,2.832c2.92,1.85,5.281,4.438,7.993,6.552.073.058-.022.173-.093.112-1.279-1.1-2.677-2.071-4-3.118-1.291-1.021-2.561-2.092-3.921-3.021a19.73,19.73,0,0,0-8.241-3.307C279.721,249.889,279.73,249.84,279.762,249.844Z" fill="#263238"/>
          <path id="Path_359" data-name="Path 359" d="M281.845,244.583a49.356,49.356,0,0,1,9.59,2.93c3.318,1.54,5.967,4.152,8.569,6.664q2.344,2.262,4.587,4.628c.062.066-.025.177-.092.111q-3.965-3.894-8.159-7.547a26.1,26.1,0,0,0-8.836-5.124c-1.861-.631-3.767-1.119-5.669-1.6C281.8,244.63,281.808,244.574,281.845,244.583Z" fill="#263238"/>
          <path id="Path_360" data-name="Path 360" d="M285.1,239.929c3.14.524,5.878.971,8.7,2.539a44.592,44.592,0,0,1,8.684,6.945c1.42,1.408,2.792,2.862,4.142,4.337.055.06-.048.157-.105.1a103.8,103.8,0,0,0-9.852-9.063,20.6,20.6,0,0,0-5.442-3.259,37.117,37.117,0,0,0-6.128-1.576C285.086,239.947,285.09,239.926,285.1,239.929Z" fill="#263238"/>
        </g>
      </g>
      <path id="Path_361" data-name="Path 361" d="M257.881,264.608l9.875-27.883s-28.539-1.2-30.372-2.383-11.269-18.509-18.419-30.148c-5.616-9.143-12.578-8.481-9.394,9.923,3.357,19.4,6.161,34.679,11.02,39.136C228.793,260.779,257.881,264.608,257.881,264.608Z" fill="#700"/>
      <g id="Group_68" data-name="Group 68" opacity="0.1">
        <path id="Path_362" data-name="Path 362" d="M214,198.9l-3.04-.06A2.938,2.938,0,0,1,214,198.9Z"/>
        <path id="Path_363" data-name="Path 363" d="M219.83,205.606l-11.05-.2a17.1,17.1,0,0,1,.33-3.14l8.66.15a21.2,21.2,0,0,1,1.2,1.78C219.25,204.656,219.54,205.126,219.83,205.606Z"/>
        <path id="Path_364" data-name="Path 364" d="M223.8,212.286l-14.56-.26c-.16-1.13-.27-2.18-.35-3.16l13.04.24C222.54,210.146,223.17,211.216,223.8,212.286Z"/>
        <path id="Path_365" data-name="Path 365" d="M227.7,218.966l-17.34-.32c-.18-1.04-.37-2.09-.56-3.16l16.04.29C226.47,216.856,227.09,217.916,227.7,218.966Z"/>
        <path id="Path_366" data-name="Path 366" d="M231.61,225.636l-20.06-.37c-.19-1.03-.38-2.09-.58-3.16l18.77.35C230.39,223.566,231.01,224.626,231.61,225.636Z"/>
        <path id="Path_367" data-name="Path 367" d="M235.74,232.316l-22.9-.42c-.21-1.03-.42-2.08-.63-3.16l21.5.39C234.48,230.386,235.17,231.466,235.74,232.316Z"/>
        <path id="Path_368" data-name="Path 368" d="M267.76,236.726l-.98,2.76-52.45-.96c-.25-1.02-.5-2.07-.75-3.16l42.42.77h.01C262.3,236.5,267.76,236.726,267.76,236.726Z"/>
        <path id="Path_369" data-name="Path 369" d="M265.56,242.926l-1.1,3.12-48.24-.88c-.33-.98-.66-2.04-.98-3.16Z"/>
        <path id="Path_370" data-name="Path 370" d="M263.24,249.486l-1.11,3.13-42.78-.78a18.7,18.7,0,0,1-1.77-3.19Z"/>
        <path id="Path_371" data-name="Path 371" d="M260.91,256.046l-1.1,3.13-28.68-.53a44.188,44.188,0,0,1-7.58-3.29Z"/>
        <path id="Path_372" data-name="Path 372" d="M258.59,262.606l-.71,2s-5.72-.76-12.81-2.25Z"/>
      </g>
      <path id="Path_373" data-name="Path 373" d="M257.338,250.068q1.182-3.279,2.289-6.583c.76-2.273,1.344-4.62,2.17-6.868.034-.094-.119-.131-.152-.037-.791,2.249-1.83,4.421-2.687,6.647q-1.251,3.246-2.425,6.519c-1.578,4.4-3.19,8.828-4.462,13.323-.038.134.173.221.231.089C254.179,258.89,255.756,254.457,257.338,250.068Z" fill="#263238"/>
      <path id="Path_374" data-name="Path 374" d="M235.15,259.906c-6-1.73-11.62-3.96-14.56-6.65-4.86-4.46-7.66-19.73-11.02-39.14-2.55-14.73,1.41-18.09,5.97-14.16Z" fill="#263238"/>
      <path id="Path_375" data-name="Path 375" d="M217.137,271.723c-1.688,1.255-66.568-.563-66.828-1.035-.7-1.277,19.223-59.827,47.594-77.149,5-3.053,12.329-.521,15.449,2.128,1.559,1.323,5.865,11.1,6.2,18.966S218.2,270.922,217.137,271.723Z" fill="#700"/>
      <path id="Path_376" data-name="Path 376" d="M215.34,198.926l-24.13-.44c1.27-1.11,2.57-2.14,3.88-3.08l18.33.33A12.674,12.674,0,0,1,215.34,198.926Z"/>
      <path id="Path_377" data-name="Path 377" d="M217.87,205.576l-33.2-.61q1.425-1.605,2.92-3.09l29.21.53C217.18,203.406,217.54,204.476,217.87,205.576Z"/>
      <path id="Path_378" data-name="Path 378" d="M219.34,212.206l-40.02-.73c.8-1.06,1.62-2.1,2.44-3.11l37.02.68C219.01,210.1,219.2,211.156,219.34,212.206Z"/>
      <path id="Path_379" data-name="Path 379" d="M219.59,218.806,174.72,218c.69-1.05,1.4-2.09,2.12-3.11l42.75.77C219.6,216.5,219.6,217.556,219.59,218.806Z"/>
      <path id="Path_380" data-name="Path 380" d="M219.55,222.266c-.01.99-.03,2.04-.05,3.15l-48.89-.89c.62-1.05,1.25-2.09,1.9-3.12Z"/>
      <path id="Path_381" data-name="Path 381" d="M219.42,228.866q-.045,1.53-.09,3.15l-52.45-.96c.57-1.04,1.14-2.08,1.74-3.12Z"/>
      <path id="Path_382" data-name="Path 382" d="M219.22,235.466c-.02,1.04-.06,2.09-.09,3.15l-55.66-1.01c.51-1.03,1.04-2.07,1.58-3.12Z"/>
      <path id="Path_383" data-name="Path 383" d="M219.01,242.066l-.12,3.15-58.58-1.07c.48-1.02.97-2.07,1.47-3.12Z"/>
      <path id="Path_384" data-name="Path 384" d="M218.75,248.666c-.04,1.07-.08,2.12-.13,3.15l-61.23-1.12c.44-1.02.9-2.06,1.37-3.12Z"/>
      <path id="Path_385" data-name="Path 385" d="M218.46,255.266c-.05,1.08-.1,2.13-.16,3.14l-63.59-1.15c.39-1,.81-2.05,1.25-3.13Z"/>
      <path id="Path_386" data-name="Path 386" d="M218.11,261.866c-.06,1.12-.13,2.18-.2,3.15l-65.64-1.21c.34-.96.72-2.01,1.13-3.13Z"/>
      <path id="Path_387" data-name="Path 387" d="M217.65,268.466a17.525,17.525,0,0,1-.44,3.14l-66.91-1.23a25.659,25.659,0,0,1,.83-3.13Z"/>
      <path id="Path_388" data-name="Path 388" d="M219.109,173.392c0,3.9,2.772,7.056,6.191,7.056s6.19-3.159,6.19-7.056-2.772-7.056-6.19-7.056S219.109,169.495,219.109,173.392Z" fill="#ffc727"/>
      <ellipse id="Ellipse_1126" data-name="Ellipse 1126" cx="6.887" cy="7.85" rx="6.887" ry="7.85" transform="translate(217.103 165.788)" fill="#c7c7c7"/>
      <g id="Group_73" data-name="Group 73">
        <path id="Path_389" data-name="Path 389" d="M212.017,205.152c-3.753.663-9.784-5.359-12.032-10.088-.152-.325,1.873-12.825,2.017-15.344.028-.517,15.578,4.742,15.578,4.742a40.242,40.242,0,0,0-2.08,9.584C215.485,194.413,215.644,204.508,212.017,205.152Z" fill="#ad6359"/>
      </g>
      <path id="Path_390" data-name="Path 390" d="M215.553,195.084c0,.05.01.11.01.17h-.08a8.9,8.9,0,0,1-1.55,0c-8.58-.69-10.87-11.41-11.44-15.52,2.65.52,15.09,4.73,15.09,4.73a39.958,39.958,0,0,0-2.08,9.58c-.01.12-.01.24-.01.35A3.853,3.853,0,0,0,215.553,195.084Z" fill="#263238"/>
      <g id="Group_75" data-name="Group 75">
        <path id="Path_391" data-name="Path 391" d="M204.3,159.871c-2.9,5.1-3.555,21.563-.452,25.962,4.5,6.378,13.63,8.94,19.495,3.128,5.685-5.633,6.161-27.1,2.53-31.282C220.526,151.522,208.582,152.338,204.3,159.871Z" fill="#ad6359"/>
      </g>
      <path id="Path_392" data-name="Path 392" d="M203.492,185.592v-.006" fill="none" stroke="#f6a89f" stroke-linecap="round" stroke-linejoin="round" stroke-width="0"/>
      <g id="Group_81" data-name="Group 81">
        <g id="Group_76" data-name="Group 76">
          <path id="Path_393" data-name="Path 393" d="M217.858,172.969c-.006-.043-.089.048-.089.094-.015,1.11-.218,2.379-1.238,2.7-.031.01-.031.066.007.063C217.769,175.71,218.023,174.023,217.858,172.969Z" fill="#263238"/>
          <path id="Path_394" data-name="Path 394" d="M216.92,171.767c-1.777-.216-2.077,3.354-.43,3.554C218.11,175.517,218.41,171.947,216.92,171.767Z" fill="#263238"/>
        </g>
        <g id="Group_77" data-name="Group 77">
          <path id="Path_395" data-name="Path 395" d="M223.952,173.648c.012-.042.082.059.077.1-.128,1.1-.089,2.388.881,2.839.03.014.022.069-.015.061C223.689,176.378,223.654,174.672,223.952,173.648Z" fill="#263238"/>
          <path id="Path_396" data-name="Path 396" d="M225.036,172.575c1.79.015,1.63,3.594-.028,3.58C223.376,176.142,223.536,172.563,225.036,172.575Z" fill="#263238"/>
        </g>
        <path id="Path_397" data-name="Path 397" d="M215.648,170.016a13.916,13.916,0,0,0,1.424-.371,2.375,2.375,0,0,0,1.379-.655.759.759,0,0,0-.044-.924,1.879,1.879,0,0,0-1.871-.351,2.753,2.753,0,0,0-1.684,1.056A.808.808,0,0,0,215.648,170.016Z" fill="#263238"/>
        <path id="Path_398" data-name="Path 398" d="M226.568,170.894a14.347,14.347,0,0,1-1.388-.487,2.379,2.379,0,0,1-1.321-.767.758.758,0,0,1,.121-.918,1.879,1.879,0,0,1,1.893-.2,2.758,2.758,0,0,1,1.592,1.192A.808.808,0,0,1,226.568,170.894Z" fill="#263238"/>
        <path id="Path_399" data-name="Path 399" d="M215.681,183.108c.244.281.478.659.876.727a2.912,2.912,0,0,0,1.212-.179.039.039,0,0,1,.044.061,1.494,1.494,0,0,1-1.455.483,1.182,1.182,0,0,1-.787-1.051C215.559,183.083,215.646,183.067,215.681,183.108Z" fill="#263238"/>
        <g id="Group_79" data-name="Group 79">
          <g id="Group_78" data-name="Group 78">
            <path id="Path_400" data-name="Path 400" d="M217.122,179.894a3.774,3.774,0,0,0,2.372,1.886,4.7,4.7,0,0,0,1.35.176,1.323,1.323,0,0,0,.261-.008c.081,0,.155-.006.245-.017a.276.276,0,0,0,.243-.229v-.008a.483.483,0,0,0,0-.114v-.008l.006-.1c.1-.85.121-2.151.121-2.151.3.182,1.824,1.028,1.837.581a56.86,56.86,0,0,0-.505-11.518.1.1,0,0,0-.2.011c-.227,3.554.173,7.123,0,10.7a6.591,6.591,0,0,0-1.732-.688c-.124.024-.006,2.516-.079,2.895a.153.153,0,0,1-.01.04,5.245,5.245,0,0,1-3.8-1.537C217.156,179.734,217.063,179.8,217.122,179.894Z" fill="#263238"/>
          </g>
        </g>
        <g id="Group_80" data-name="Group 80">
          <path id="Path_401" data-name="Path 401" d="M220.378,181.483a4.49,4.49,0,0,1-1.9,1.236,2.024,2.024,0,0,1-1.228-.027c-.863-.306-.817-1.118-.6-1.8a4.811,4.811,0,0,1,.485-1.028A5.809,5.809,0,0,0,220.378,181.483Z" fill="#263238"/>
          <path id="Path_402" data-name="Path 402" d="M218.473,182.719a2.024,2.024,0,0,1-1.228-.027c-.863-.306-.817-1.118-.6-1.8A2.084,2.084,0,0,1,218.473,182.719Z" fill="#ff99ba"/>
        </g>
      </g>
      <g id="Group_82" data-name="Group 82">
        <path id="Path_403" data-name="Path 403" d="M203.205,172.021c3.819.025,4.631-6.9,4.631-6.9s6.57-1.008,7.573-5.935c0,0,6.184,4.037,11.1,2.311s4.295-7.817,3.751-9c-1.247-2.711-5.35.716-5.35.716s-6.132-3.795-13.138-3.172c-5.7.507-8.614,5.843-8.614,5.843s-3.066.619-4.08,2.751S200.77,172.005,203.205,172.021Z" fill="#263238"/>
        <path id="Path_404" data-name="Path 404" d="M206.292,165.153c5.066.724,8.465-2.612,9.251-7.464a.048.048,0,0,1,.1.008c-.192,4.525-4.47,9.527-9.4,7.679A.116.116,0,0,1,206.292,165.153Z" fill="#263238"/>
        <path id="Path_405" data-name="Path 405" d="M203.293,155.791a.054.054,0,0,1,.032.1c-1.426.643-3.057,1.121-4.069,2.4-1.221,1.551-.982,3.6-.55,5.385.669,2.759,2.051,6.349,4.5,7.992.141.094-.009.3-.151.213-2.934-1.77-4.6-6.426-4.978-9.671C197.653,158.582,199.931,156.539,203.293,155.791Z" fill="#263238"/>
        <path id="Path_406" data-name="Path 406" d="M220.96,160.558a6.975,6.975,0,0,0,7.747-.113c2.7-2.023,2.19-5.373,1.081-8.169-.055-.137.13-.284.214-.149,1.54,2.46,1.607,6.189-.611,8.294-2.293,2.175-6.211,2.09-8.649.47C220.538,160.756,220.757,160.422,220.96,160.558Z" fill="#263238"/>
      </g>
      <g id="Group_83" data-name="Group 83">
        <path id="Path_407" data-name="Path 407" d="M214.863,177.862a4.75,4.75,0,1,1,5.733-4.837h0a4.753,4.753,0,0,1-5.733,4.837Zm1.841-8.672a4.115,4.115,0,1,0,3.257,3.86A4.085,4.085,0,0,0,216.7,169.19Z" fill="#455a64"/>
        <path id="Path_408" data-name="Path 408" d="M225.722,178.81c-1.778-.377-3-2.541-2.775-5.009a5.674,5.674,0,0,1,1.3-3.214,2.96,2.96,0,0,1,5.045.467,5.674,5.674,0,0,1,.692,3.4c-.242,2.608-2.018,4.584-3.959,4.4A2.66,2.66,0,0,1,225.722,178.81Zm1.364-8.743a2.1,2.1,0,0,0-.238-.037,2.535,2.535,0,0,0-2.119.976,5.051,5.051,0,0,0-1.151,2.854c-.208,2.259.912,4.218,2.511,4.365s3.058-1.571,3.268-3.83a5.042,5.042,0,0,0-.607-3.017A2.616,2.616,0,0,0,227.086,170.067Z" fill="#455a64"/>
        <path id="Path_409" data-name="Path 409" d="M220.386,173.558l-.361-.523c.773-.535,2.507-1.192,3.547.151l-.5.389C222.14,172.37,220.457,173.509,220.386,173.558Z" fill="#455a64"/>
        <path id="Path_410" data-name="Path 410" d="M199.2,172.823l-.535-.343c.16-.249,1.6-2.439,3.035-2.538,1.339-.088,9.742,1.491,10.1,1.559l-.118.624c-2.408-.455-8.9-1.62-9.936-1.549C200.8,170.641,199.587,172.22,199.2,172.823Z" fill="#455a64"/>
      </g>
      <g id="Group_84" data-name="Group 84">
        <path id="Path_411" data-name="Path 411" d="M204.79,173.518s-2.547-5.866-5.138-5.059-1.4,8.8,1.125,10.376a2.841,2.841,0,0,0,4.033-.738Z" fill="#ad6359"/>
        <path id="Path_412" data-name="Path 412" d="M200.049,170.742c-.043-.013-.064.047-.029.07,1.76,1.167,2.409,3.151,2.741,5.14a1.567,1.567,0,0,0-2.213-.887c-.057.025-.025.113.031.113a1.746,1.746,0,0,1,1.762.98,8.416,8.416,0,0,1,.593,1.707c.055.19.383.161.358-.05l-.007-.048C203.831,175.331,202.625,171.522,200.049,170.742Z" fill="#263238"/>
      </g>
      <g id="Group_85" data-name="Group 85">
        <path id="Path_413" data-name="Path 413" d="M201.074,169.258s-.483-8.512,2.056-13.18c2.826-5.2,13.973-8.563,21.777-2.867,0,0-12.383-3.908-18.418,3.276-2.542,3.027-2.577,13.027-2.577,13.027Z" fill="#c7c7c7"/>
        <ellipse id="Ellipse_1127" data-name="Ellipse 1127" cx="6.887" cy="7.85" rx="6.887" ry="7.85" transform="translate(195.225 165.788)" fill="#c7c7c7"/>
        <path id="Path_414" data-name="Path 414" d="M206.992,173.392c0,3.9-2.771,7.056-6.19,7.056s-6.19-3.159-6.19-7.056,2.771-7.056,6.19-7.056S206.992,169.495,206.992,173.392Z" fill="#700"/>
      </g>
      <path id="Path_415" data-name="Path 415" d="M308.353,226.68c.534.649.955,1.352.661,1.613l-.01.009c-.313.238-.922-.31-1.456-.959Z" fill="#263238"/>
      <path id="Path_416" data-name="Path 416" d="M308.114,219.66c.558.677.645,5.477.41,7.228a.867.867,0,0,1-.793.67c-1.74-.1-6.467-1.116-7.027-1.8-.38-.461-1.246-2.528-2.287-4.554-1.348-2.652-24.161-31.83-24.243-32.285s.656-1.208,1.1-1.577,1.342-.959,1.773-.792,24.689,28.156,27.033,29.988C305.873,217.953,307.735,219.2,308.114,219.66Z" fill="#37474f"/>
      <path id="Path_417" data-name="Path 417" d="M308.118,219.664a.6.6,0,0,1,.12.252,23.018,23.018,0,0,1-3.63,3.814,15.122,15.122,0,0,1-3.585,2.25.754.754,0,0,1-.316-.214,2.55,2.55,0,0,1-.219-.328c1.22-.479,4.213-1.978,7.313-6.074A2.124,2.124,0,0,1,308.118,219.664Z" fill="#a6a6a6"/>
      <g id="Group_88" data-name="Group 88">
        <rect id="Rectangle_35" data-name="Rectangle 35" width="1.976" height="12.102" rx="0.73" transform="matrix(0.772, -0.636, 0.636, 0.772, 293.354, 210.84)" fill="#263238"/>
        <rect id="Rectangle_36" data-name="Rectangle 36" width="1.154" height="7.683" rx="0.426" transform="translate(296.14 213.577) rotate(-39.472)" fill="#a6a6a6"/>
        <rect id="Rectangle_37" data-name="Rectangle 37" width="1.151" height="0.339" transform="translate(299.199 217.29) rotate(-39.462)" fill="#263238"/>
      </g>
      <path id="Path_418" data-name="Path 418" d="M191.126,209.086c6.187,17.324,18.712,34.951,29.128,36.667,10.329,1.7,37.2-9.865,45.4-13.76,3.159-1.5-7.437-28.64-10.8-27.008-5.712,2.77-30.486,16.978-32.481,16.437-1.253-.339-12.18-8.624-21.379-17.283C189.039,192.885,189.2,203.7,191.126,209.086Z" fill="#ad6359"/>
      <g id="Group_91" data-name="Group 91">
        <path id="Path_419" data-name="Path 419" d="M299.822,200.171c.443,3.464-8.19,3.83-8.19,3.83a6.444,6.444,0,0,1,3.029,3.166c.958,2.475-2.5,5.063-2.5,5.063a7.95,7.95,0,0,1,2.663,3.849c.678,2.461-2.442,5.57-2.442,5.57a6.966,6.966,0,0,1,.21,4.859c-1.548,4.2-8.239,5.591-12.483,6.52s-17.151-.412-19.637-.419l-6.194-27.187s17.846-9.578,22.99-9.962C281.6,195.137,299.146,194.877,299.822,200.171Z" fill="#ad6359"/>
        <g id="Group_90" data-name="Group 90">
          <path id="Path_420" data-name="Path 420" d="M291.548,203.911c-4.691-.762-9.555-.4-14.244,0a.081.081,0,0,0,.015.162c4.66-.452,9.552.33,14.22.064A.115.115,0,0,0,291.548,203.911Z" fill="#263238"/>
          <path id="Path_421" data-name="Path 421" d="M291.989,211.894a12.324,12.324,0,0,0-3.232.215q-1.707.231-3.4.521c-2.266.385-4.523.821-6.766,1.323-.1.022-.09.18.015.162,2.259-.379,4.524-.724,6.8-1.008q1.707-.213,3.416-.4a14.765,14.765,0,0,0,3.2-.5A.164.164,0,0,0,291.989,211.894Z" fill="#263238"/>
          <path id="Path_422" data-name="Path 422" d="M292.282,221.662a8.643,8.643,0,0,0-2.9.349q-1.542.3-3.089.573c-2.062.37-4.124.739-6.2,1.038-.1.015-.089.176.016.162,2.108-.292,4.219-.556,6.325-.867q1.551-.229,3.1-.475a8.1,8.1,0,0,0,2.769-.677A.058.058,0,0,0,292.282,221.662Z" fill="#263238"/>
        </g>
      </g>
      <path id="Path_423" data-name="Path 423" d="M246.869,207.788l12.282,29.6s-30.8,12.051-40.313,9.227-22.627-22-26.892-33.419-3.159-21.07,11.39-8.207,18.539,15.606,19.453,15.44S246.869,207.788,246.869,207.788Z" fill="#700"/>
      <g id="Group_93" data-name="Group 93" opacity="0.1">
        <path id="Path_424" data-name="Path 424" d="M203.71,205.316l-13.85-.25a11.74,11.74,0,0,1,.02-3.15l9.91.18q1.62,1.185,3.55,2.89C203.46,205.1,203.59,205.206,203.71,205.316Z"/>
        <path id="Path_425" data-name="Path 425" d="M207.73,208.846q2.04,1.77,3.73,3.21l-20.05-.36c-.36-1.09-.67-2.15-.93-3.17Z"/>
        <path id="Path_426" data-name="Path 426" d="M248.93,212.746l-10.94-.2c2.14-1.14,4.14-2.22,5.7-3.05l3.92.07Z"/>
        <path id="Path_427" data-name="Path 427" d="M215.67,215.586c1.76,1.44,3.11,2.49,4.14,3.23l-25.6-.47c-.54-1.1-1.04-2.16-1.47-3.18Z"/>
        <path id="Path_428" data-name="Path 428" d="M251.69,219.4l-25.8-.47c1.58-.81,3.62-1.89,5.82-3.05l18.66.34Z"/>
        <path id="Path_429" data-name="Path 429" d="M254.45,226.056l-56.54-1.03c-.66-1.07-1.28-2.14-1.87-3.19l57.09,1.05Z"/>
        <path id="Path_430" data-name="Path 430" d="M257.21,232.706l-54.84-1c-.77-1.04-1.51-2.11-2.23-3.19l55.75,1.02Z"/>
        <path id="Path_431" data-name="Path 431" d="M259.15,237.386s-1.96.77-5.05,1.87l-46.28-.84c-.93-1.01-1.85-2.08-2.76-3.2l53.59.97Z"/>
        <path id="Path_432" data-name="Path 432" d="M244.3,242.526c-3.49,1.08-7.24,2.14-10.84,2.96l-17.81-.33a28.5,28.5,0,0,1-4.29-3.23Z"/>
      </g>
      <g id="Group_94" data-name="Group 94">
        <path id="Path_433" data-name="Path 433" d="M258.821,237.369c-4.651,1.713-9.306,3.367-14.064,4.762s-16.927,4.444-21.929,4.625a12.5,12.5,0,0,1-6.593-1.9,26.544,26.544,0,0,1-5.426-4.394c-1.7-1.7-3.309-3.491-4.9-5.289-1.818-2.049-3.568-4.153-5.313-6.264-1.831-2.216-3.685-4.442-5.365-6.774-.059-.081-.192,0-.133.082,1.465,2.079,2.867,4.195,4.379,6.242.621.842,1.262,1.669,1.906,2.494-.343-.252-.679-.512-1.029-.753-1.3-.9-2.643-1.757-3.894-2.727a.078.078,0,1,0-.092.125c1.272.9,2.457,1.935,3.65,2.939.584.491,1.171.973,1.781,1.431.286.216.57.433.858.645.038.028.077.059.115.088.444.551.884,1.107,1.333,1.654,1.6,1.946,3.235,3.866,4.928,5.732a31.7,31.7,0,0,0,5.228,4.775,14.155,14.155,0,0,0,6.311,2.741c4.677.537,17.264-2.569,22.176-3.975a127.508,127.508,0,0,0,16.238-5.725C259.3,237.761,259.164,237.243,258.821,237.369Z" fill="#263238"/>
        <path id="Path_434" data-name="Path 434" d="M227.12,218.208c-.69.322-3.122,1.815-3.946,1.881a3.136,3.136,0,0,1-2.149-.871c-.669-.518-1.325-1.053-1.995-1.571-.831-.641-1.67-1.272-2.507-1.9-.04-.059-.081-.117-.122-.175-.124-.178-.25-.355-.382-.527q-.4-.517-.81-1.025c-.536-.663-1.1-1.3-1.654-1.951-.065-.077-.171.037-.108.113.558.673,1.064,1.38,1.571,2.09.167.233.328.468.491.7-.135-.1-.267-.2-.4-.305-.66-.491-2.745-2.01-4.03-3.046a.078.078,0,1,0-.092.125c1.171.91,3.767,3.175,4.482,3.786,1.4,1.2,2.813,2.376,4.25,3.525,1.087.87,2.257,2.009,3.77,1.632a18.65,18.65,0,0,0,3.784-2.292C227.386,218.3,227.233,218.156,227.12,218.208Z" fill="#263238"/>
        <path id="Path_435" data-name="Path 435" d="M248.29,224.74q-1.287-3.24-2.646-6.448c-.936-2.207-2.053-4.351-2.924-6.583-.036-.093-.176-.019-.138.074.9,2.209,1.557,4.523,2.39,6.759q1.214,3.259,2.5,6.49c1.732,4.341,3.458,8.726,5.482,12.936.061.126.277.051.233-.086C251.768,233.44,250.012,229.076,248.29,224.74Z" fill="#263238"/>
      </g>
      <rect id="Rectangle_38" data-name="Rectangle 38" width="358.539" height="12.75" transform="translate(70.73 260.196)" fill="#37474f"/>
      <rect id="Rectangle_39" data-name="Rectangle 39" width="358.539" height="4.976" transform="translate(70.73 267.97)" fill="#455a64"/>
      <path id="Path_436" data-name="Path 436" d="M83.591,451.85H78.437l15-178.9h13.154Z" fill="#455a64"/>
      <path id="Path_437" data-name="Path 437" d="M106.588,272.95l-1.54,11.97H92.438l1-11.97Z" fill="#263238"/>
      <path id="Path_438" data-name="Path 438" d="M416.409,451.85h5.154l-15-178.9H393.409Z" fill="#455a64"/>
      <path id="Path_439" data-name="Path 439" d="M393.412,272.95l1.54,11.97h12.61l-1-11.97Z" fill="#263238"/>
      <path id="Path_440" data-name="Path 440" d="M370.806,260.2H281.751l21.631-59.428h89.055Z" fill="#263238"/>
      <path id="Path_441" data-name="Path 441" d="M373.962,260.2H284.907l21.631-59.428h89.055Z" fill="#37474f"/>
      <path id="Path_442" data-name="Path 442" d="M395.6,200.772,373.96,260.2H337.94l49.317-59.428Z" fill="#263238"/>
      <path id="Path_443" data-name="Path 443" d="M389.829,260.2H378.99l-9.728-16.848H380.1Z" fill="#455a64"/>
      <path id="Path_444" data-name="Path 444" d="M369.262,243.348V260.2h9.728Z" fill="#37474f"/>
      <path id="Path_445" data-name="Path 445" d="M329.033,260.2H318.194l-9.727-16.848h10.839Z" fill="#455a64"/>
      <path id="Path_446" data-name="Path 446" d="M308.467,243.348V260.2h9.727Z" fill="#263238"/>
      <path id="Path_447" data-name="Path 447" d="M95.268,254.051l-1.8-.236,9.264-70.478,33.633-18.458.873,1.591-32.827,18.016Z" fill="#263238"/>
      <path id="Path_448" data-name="Path 448" d="M101.013,183.912a2.56,2.56,0,1,0,2.559-2.56A2.559,2.559,0,0,0,101.013,183.912Z" fill="#700"/>
      <path id="Path_449" data-name="Path 449" d="M133.884,165.675a2.56,2.56,0,1,0,2.56-2.56A2.56,2.56,0,0,0,133.884,165.675Z" fill="#700"/>
      <path id="Path_450" data-name="Path 450" d="M153.649,168.017l-12.03,13.43-5.553-6.858-3.381-4.181,9.02-10.058,4.524,2.9Z" fill="#700"/>
      <path id="Path_451" data-name="Path 451" d="M153.649,168.017l-12.03,13.43-5.553-6.858,10.163-11.335Z" opacity="0.1"/>
      <path id="Path_452" data-name="Path 452" d="M171.09,174.645l-20.978,23.412L136.18,180.285,151.9,162.74Z" fill="#700"/>
      <path id="Path_453" data-name="Path 453" d="M110.841,260.2H79.8l1.9-9.751h27.23Z" fill="#700"/>
      <path id="Path_454" data-name="Path 454" d="M290.753,232.388,288.541,260.2h-15.3l-2.212-27.812Z" fill="#700"/>
      <rect id="Rectangle_40" data-name="Rectangle 40" width="22.49" height="4.055" transform="translate(269.581 229.877)" fill="#455a64"/>
      <path id="Path_455" data-name="Path 455" d="M290.529,229.877H271.122l1.134-4.555H289.4Z" fill="#37474f"/>
      <path id="Path_456" data-name="Path 456" d="M286.2,246.538c0,3.611-2.379,6.538-5.312,6.538s-5.312-2.927-5.312-6.538S277.957,240,280.891,240,286.2,242.928,286.2,246.538Z" fill="#fff"/>
      <path id="Path_457" data-name="Path 457" d="M140.7,315.265c-6.539,0-11.724-1.98-15.411-5.883-7.854-8.315-7.014-23.017-6.563-30.915.076-1.325.142-2.469.142-3.265,0-4.139-1.127-7.415-2.32-10.883a43.56,43.56,0,0,1-2.1-7.628c-.684-4.43,1.13-10.4,3.2-13.4,1.591-2.3,5.061-1.859,5.207-1.839l-.266,1.982.133-.991-.13.992c-.665-.087-2.56-.074-3.3,1-1.823,2.633-3.45,8.19-2.87,11.953a41.44,41.44,0,0,0,2.017,7.282c1.194,3.471,2.429,7.059,2.429,11.533,0,.853-.067,2.024-.144,3.379-.435,7.6-1.243,21.74,6.019,29.428,3.294,3.487,7.99,5.256,13.957,5.256,4.528,0,8.027-1.336,10.7-4.083,6.835-7.035,6.406-21.971,6.122-31.855-.087-3.049-.163-5.681-.028-7.626a40.692,40.692,0,0,1,2.319-10.113c1.572-4.826,2.929-8.994,1.017-14.338A3.076,3.076,0,0,0,157.6,243.3l-.25-1.985a5.072,5.072,0,0,1,5.361,3.26c2.143,5.988.618,10.672-1,15.631a39.118,39.118,0,0,0-2.225,9.633c-.128,1.846-.054,4.434.032,7.43.294,10.22.737,25.665-6.687,33.305C149.809,313.686,145.727,315.265,140.7,315.265Z" fill="#a6a6a6"/>
      <rect id="Rectangle_41" data-name="Rectangle 41" width="35.88" height="21.795" transform="translate(121.864 238.401)" fill="#263238"/>
      <rect id="Rectangle_42" data-name="Rectangle 42" width="6.318" height="0.942" transform="translate(125.889 237.459)" fill="#263238"/>
      <rect id="Rectangle_43" data-name="Rectangle 43" width="3.989" height="0.942" transform="translate(127.058 236.541)" fill="#263238"/>
      <path id="Path_458" data-name="Path 458" d="M150.864,238.4H141.32l1-2.937h7.544Z" fill="#263238"/>
      <rect id="Rectangle_44" data-name="Rectangle 44" width="4.822" height="1.76" transform="translate(143.681 236.641)" fill="#fff"/>
      <path id="Path_459" data-name="Path 459" d="M120.942,241.293v1.731l.918.311v.742l-1.492-.511v-2.816l1.492-.511v.742Z" fill="#263238"/>
      <path id="Path_460" data-name="Path 460" d="M158.661,241.293v1.731l-.918.311v.742l1.492-.511v-2.816l-1.492-.511v.742Z" fill="#263238"/>
      <path id="Path_461" data-name="Path 461" d="M132.207,241.879a54.26,54.26,0,0,1,.5,7.815,53.68,53.68,0,0,1-.5,7.814,53.818,53.818,0,0,1-.5-7.814A54.4,54.4,0,0,1,132.207,241.879Z" fill="#455a64"/>
      <path id="Path_462" data-name="Path 462" d="M146.092,258.59a8.9,8.9,0,1,1,8.9-8.9A8.907,8.907,0,0,1,146.092,258.59Zm0-17.293a8.4,8.4,0,1,0,8.4,8.4A8.406,8.406,0,0,0,146.092,241.3Z" fill="#37474f"/>
      <path id="Path_463" data-name="Path 463" d="M152.937,249.694a6.845,6.845,0,1,1-6.845-6.846A6.845,6.845,0,0,1,152.937,249.694Z" fill="#455a64"/>
      <circle id="Ellipse_1128" data-name="Ellipse 1128" cx="0.72" cy="0.72" r="0.72" transform="translate(154.841 239.52)" fill="#700"/>
      <path id="Path_464" data-name="Path 464" d="M355.447,166.464,335.63,186.136a3.436,3.436,0,1,1-4.842-4.876l19.81-19.679Z" fill="#ebebeb"/>
      <path id="Path_465" data-name="Path 465" d="M355.447,166.464l-5.633,5.593-3.746-5.978,4.53-4.5Z" fill="#c7c7c7"/>
      <path id="Path_466" data-name="Path 466" d="M329.477,187.4h0a.87.87,0,0,1,0-1.231l4.483-4.452,1.227,1.236-4.482,4.452A.872.872,0,0,1,329.477,187.4Z" fill="#ebebeb"/>
      <path id="Path_467" data-name="Path 467" d="M335.194,182.954l-4.487,4.455a.871.871,0,0,1-1.224-1.239l.756-.751,3.724-3.7Z" fill="#ebebeb"/>
      <rect id="Rectangle_45" data-name="Rectangle 45" width="10.286" height="4.85" transform="translate(349.657 160.145) rotate(45.2)" fill="#700"/>
      <path id="Path_468" data-name="Path 468" d="M353.738,168.156l-4.845-4.878,4.093-4.065a3.437,3.437,0,0,1,4.861.017h0a3.437,3.437,0,0,1-.017,4.862Z" fill="#700"/>
      <path id="Path_469" data-name="Path 469" d="M342.995,178.826l-7.362,7.31a3.421,3.421,0,0,1-4.163.517l-.763.756a.871.871,0,0,1-1.224-1.239l.756-.751a3.42,3.42,0,0,1,.545-4.16l2.485-2.467Z" fill="#700"/>
      <path id="Path_470" data-name="Path 470" d="M329.772,195.825c-2.5,0-1.642-4.916,0-6.558C331.457,190.952,332.262,195.825,329.772,195.825Z" fill="#700"/>
      <path id="Path_471" data-name="Path 471" d="M291.948,183.356H250.109V129.647h31.066l10.774,10.234Z" fill="#dbdbdb"/>
      <rect id="Rectangle_46" data-name="Rectangle 46" width="41.839" height="15.717" transform="translate(250.109 167.639)" fill="#ebebeb"/>
      <path id="Path_472" data-name="Path 472" d="M250.109,167.639l13.236-12.679,12,12.679Z" fill="#700"/>
      <path id="Path_473" data-name="Path 473" d="M267.105,167.639l15.717-19.862,9.126,11.533v8.329Z" fill="#700"/>
      <path id="Path_474" data-name="Path 474" d="M263.81,146.6a4.69,4.69,0,1,1-4.69-4.69A4.689,4.689,0,0,1,263.81,146.6Z" fill="#fff"/>
      <path id="Path_475" data-name="Path 475" d="M281.174,129.647l10.774,10.234H281.174Z" fill="#ebebeb"/>
      <path id="Path_476" data-name="Path 476" d="M259.826,177.241a.281.281,0,0,1,.36.181,2.268,2.268,0,0,0,4.426-.684v-5.265a.288.288,0,1,1,.575,0v5.265a2.846,2.846,0,0,1-5.553.875A.3.3,0,0,1,259.826,177.241Z" fill="#a6a6a6"/>
      <path id="Path_477" data-name="Path 477" d="M267.458,171.473a.291.291,0,0,1,.288-.288h2.375a2.393,2.393,0,0,1,0,4.785l-2.075.024v3.3a.3.3,0,0,1-.3.288.291.291,0,0,1-.288-.288Zm2.663,3.933a1.817,1.817,0,0,0,0-3.633h-2.075v3.633Z" fill="#a6a6a6"/>
      <path id="Path_478" data-name="Path 478" d="M278.376,175.8a.287.287,0,0,1-.3-.288.3.3,0,0,1,.3-.3H281a.3.3,0,0,1,.263.3v2.927a.335.335,0,0,1-.108.216,4.3,4.3,0,1,1-2.71-7.592,4.391,4.391,0,0,1,2.723.947.3.3,0,0,1,.036.408.312.312,0,0,1-.42.048,3.707,3.707,0,1,0-2.339,6.524,3.773,3.773,0,0,0,2.219-.719V175.8Z" fill="#a6a6a6"/>
      <rect id="Rectangle_47" data-name="Rectangle 47" width="18.163" height="57.106" transform="translate(138.784 69.862)" fill="#c7c7c7"/>
      <g id="Group_117" data-name="Group 117">
        <rect id="Rectangle_48" data-name="Rectangle 48" width="14.127" height="7.899" transform="translate(140.801 71.672)" fill="#700"/>
        <rect id="Rectangle_49" data-name="Rectangle 49" width="14.127" height="7.899" transform="translate(140.801 81.246)" fill="#700"/>
        <rect id="Rectangle_50" data-name="Rectangle 50" width="14.127" height="7.899" transform="translate(140.801 90.821)" fill="#700"/>
        <rect id="Rectangle_51" data-name="Rectangle 51" width="14.128" height="7.899" transform="translate(140.801 100.395)" fill="#700"/>
        <rect id="Rectangle_52" data-name="Rectangle 52" width="14.127" height="7.899" transform="translate(140.801 109.969)" fill="#700"/>
      </g>
      <rect id="Rectangle_53" data-name="Rectangle 53" width="14.127" height="7.899" transform="translate(140.801 71.672)" fill="#700" opacity="0.3"/>
      <rect id="Rectangle_54" data-name="Rectangle 54" width="14.127" height="7.899" transform="translate(140.801 81.246)" opacity="0.1"/>
      <rect id="Rectangle_55" data-name="Rectangle 55" width="14.128" height="7.899" transform="translate(140.801 100.395)" fill="#fff" opacity="0.2"/>
      <rect id="Rectangle_56" data-name="Rectangle 56" width="14.127" height="7.899" transform="translate(140.801 109.969)" fill="#fff" opacity="0.4"/>
      <path id="Path_479" data-name="Path 479" d="M149,123.4a1.669,1.669,0,1,1-1.669-1.669A1.67,1.67,0,0,1,149,123.4Z" fill="#263238"/>
      <rect id="Rectangle_57" data-name="Rectangle 57" width="18.163" height="57.106" transform="translate(179.164 79.203) rotate(45)" fill="#dbdbdb"/>
      <g id="Group_120" data-name="Group 120" transform="translate(-0.125 -0.477)">
        <rect id="Rectangle_58" data-name="Rectangle 58" width="14.127" height="7.899" transform="translate(179.435 82.386) rotate(45)" fill="#700"/>
        <rect id="Rectangle_59" data-name="Rectangle 59" width="14.127" height="7.899" transform="translate(172.665 89.156) rotate(45)" fill="#700"/>
        <rect id="Rectangle_60" data-name="Rectangle 60" width="14.128" height="7.899" transform="translate(165.895 95.926) rotate(45)" fill="#700"/>
        <rect id="Rectangle_61" data-name="Rectangle 61" width="14.127" height="7.899" transform="translate(159.125 102.696) rotate(45)" fill="#700"/>
        <rect id="Rectangle_62" data-name="Rectangle 62" width="14.127" height="7.899" transform="translate(152.355 109.467) rotate(45)" fill="#700"/>
      </g>
      <rect id="Rectangle_63" data-name="Rectangle 63" width="14.127" height="7.899" transform="translate(179.311 81.91) rotate(45)" opacity="0.3"/>
      <rect id="Rectangle_64" data-name="Rectangle 64" width="14.127" height="7.899" transform="translate(172.541 88.68) rotate(45)" opacity="0.1"/>
      <rect id="Rectangle_65" data-name="Rectangle 65" width="14.127" height="7.899" transform="translate(159.125 102.696) rotate(45)" fill="#fff" opacity="0.2"/>
      <rect id="Rectangle_66" data-name="Rectangle 66" width="14.127" height="7.899" transform="translate(152.355 109.467) rotate(45)" fill="#fff" opacity="0.4"/>
      <path id="Path_480" data-name="Path 480" d="M148.649,124.762a1.669,1.669,0,1,1,0-2.36A1.668,1.668,0,0,1,148.649,124.762Z" fill="#263238"/>
      <rect id="Rectangle_67" data-name="Rectangle 67" width="18.163" height="57.106" transform="translate(200.988 115.263) rotate(90)" fill="#ebebeb"/>
      <g id="Group_123" data-name="Group 123">
        <rect id="Rectangle_68" data-name="Rectangle 68" width="14.127" height="7.899" transform="translate(199.177 117.281) rotate(90)" fill="#700"/>
        <rect id="Rectangle_69" data-name="Rectangle 69" width="14.127" height="7.899" transform="translate(189.603 117.281) rotate(90)" fill="#700"/>
        <rect id="Rectangle_70" data-name="Rectangle 70" width="14.127" height="7.899" transform="translate(180.029 117.281) rotate(90)" fill="#700"/>
        <rect id="Rectangle_71" data-name="Rectangle 71" width="14.128" height="7.899" transform="translate(170.455 117.281) rotate(90)" fill="#700"/>
        <rect id="Rectangle_72" data-name="Rectangle 72" width="14.127" height="7.899" transform="translate(160.88 117.281) rotate(90)" fill="#700"/>
      </g>
      <rect id="Rectangle_73" data-name="Rectangle 73" width="14.127" height="7.899" transform="translate(199.177 117.281) rotate(90)" fill="#700" opacity="0.3"/>
      <rect id="Rectangle_74" data-name="Rectangle 74" width="14.127" height="7.899" transform="translate(189.603 117.281) rotate(90)" fill="#700" opacity="0.1"/>
      <rect id="Rectangle_75" data-name="Rectangle 75" width="14.128" height="7.899" transform="translate(170.455 117.281) rotate(90)" fill="#fff" opacity="0.2"/>
      <rect id="Rectangle_76" data-name="Rectangle 76" width="14.127" height="7.899" transform="translate(160.88 117.281) rotate(90)" fill="#fff" opacity="0.4"/>
      <path id="Path_481" data-name="Path 481" d="M147.444,125.476a1.669,1.669,0,1,1,1.669-1.669A1.669,1.669,0,0,1,147.444,125.476Z" fill="#263238"/>
      <path id="Path_482" data-name="Path 482" d="M79,449.808c1.35.441,2.56,1.43,3.328.111s2.836-.928,3.608-1.208,1.846-2.506,1.794-3.2-.629-1.407-.63-2.067-.04-1.632-.123-2.542a2.993,2.993,0,0,0-1.574-2.856,6.868,6.868,0,0,0-3.112-.5c-.886-.087-1.536-1.508-3.3-2.054s-4.071,1.432-4.277,2.223-.369,3.189-1.028,4.084-1.573.6-1.73,1.709-.1,2.946.225,3.278,1.185-.165,1.577.5.745,2.434,1.552,2.84S77.964,449.47,79,449.808Z" fill="#ebebeb"/>
      <g id="Group_127" data-name="Group 127">
        <path id="Path_483" data-name="Path 483" d="M64.349,395.827l-1.72,1.73-.06-.63v-.01l1.1-1.09Z" fill="#37474f"/>
        <path id="Path_484" data-name="Path 484" d="M70.869,395.827l-5.85,5.89-1.89,1.87-.03-.39v-.01l-.02-.22,1.59-1.6,5.57-5.54Z" fill="#37474f"/>
        <path id="Path_485" data-name="Path 485" d="M77.4,395.827,68.289,405l-4.64,4.61-.01-.09-.04-.51,4.34-4.37,8.87-8.81Z" fill="#37474f"/>
        <path id="Path_486" data-name="Path 486" d="M83.929,395.827l-12.36,12.44-7.41,7.36-.05-.57,7.1-7.14,12.16-12.09Z" fill="#37474f"/>
        <path id="Path_487" data-name="Path 487" d="M90.429,395.827c-.88.91-1.77,1.81-2.66,2.71l-12.93,13.01-10.17,10.11-.04-.54,9.86-9.93,13-12.92c.82-.82,1.65-1.63,2.48-2.44Z" fill="#37474f"/>
        <path id="Path_488" data-name="Path 488" d="M96.929,395.827q-2.94,3-5.89,5.98l-12.92,13.01-12.94,12.85-.04-.5,12.62-12.7,13.01-12.93q2.9-2.865,5.8-5.71Z" fill="#37474f"/>
        <path id="Path_489" data-name="Path 489" d="M103.389,395.827q-4.515,4.65-9.08,9.26l-12.92,13-13.01,12.93c-.89.89-1.79,1.77-2.69,2.65l-.04-.42c.81-.84,1.64-1.67,2.46-2.5l12.93-13.01,13-12.92q4.56-4.515,9.16-8.99Z" fill="#37474f"/>
        <path id="Path_490" data-name="Path 490" d="M109.759,395.9v.04q-6.06,6.24-12.17,12.42l-12.93,13.01-13,12.92-5.46,5.37-.03-.33q2.6-2.655,5.22-5.31l12.92-13.01,13.01-12.92Q103.5,401.967,109.759,395.9Z" fill="#37474f"/>
        <path id="Path_491" data-name="Path 491" d="M109.169,402.947v.02l-.02.22v.01q-4.14,4.23-8.29,8.44l-12.92,13-13.01,12.93q-4.1,4.05-8.23,8.08v-.03l-.02-.2q3.975-4.08,7.98-8.13l12.92-13,13.01-12.93Q104.864,407.142,109.169,402.947Z" fill="#37474f"/>
        <path id="Path_492" data-name="Path 492" d="M108.569,410.007l-.04.44c-1.46,1.49-2.92,2.97-4.39,4.46l-12.93,13.01-13,12.92q-5.31,5.25-10.67,10.46h-.12q5.22-5.4,10.51-10.73l12.93-13.01,13-12.92Q106.214,412.312,108.569,410.007Z" fill="#37474f"/>
        <path id="Path_493" data-name="Path 493" d="M107.969,417.087l-.05.57c-.17.17-.34.35-.51.52l-12.92,13.01-13.01,12.92q-3.645,3.615-7.31,7.19h-.29q3.66-3.735,7.33-7.46l12.92-13,13.01-12.93C107.419,417.637,107.689,417.357,107.969,417.087Z" fill="#37474f"/>
        <path id="Path_494" data-name="Path 494" d="M107.359,424.217l-.05.63-9.55,9.61-13.01,12.93q-1.98,1.965-3.97,3.91h-.42q2.055-2.1,4.12-4.18l12.93-13.01Z" fill="#37474f"/>
        <path id="Path_495" data-name="Path 495" d="M106.759,431.337l-.06.69-5.67,5.71-13,12.92c-.22.21-.43.43-.65.64h-.52c.3-.3.6-.61.9-.91l12.92-13.01Z" fill="#37474f"/>
        <path id="Path_496" data-name="Path 496" d="M106.149,438.467l-.06.75-1.78,1.79L93.949,451.3h-.57l10.57-10.64Z" fill="#37474f"/>
        <path id="Path_497" data-name="Path 497" d="M105.549,445.617v.03l-.06.72-4.96,4.93h-.62Z" fill="#37474f"/>
      </g>
      <g id="Group_128" data-name="Group 128">
        <path id="Path_498" data-name="Path 498" d="M109.679,396.917l-.06.65-1.72-1.74h.68Z" fill="#37474f"/>
        <path id="Path_499" data-name="Path 499" d="M109.169,402.967l-.06.62-1.88-1.87-5.86-5.89h.64l5.57,5.54Z" fill="#37474f"/>
        <path id="Path_500" data-name="Path 500" d="M108.649,409.007l-.04.51-.01.1-4.65-4.62-9.11-9.17h.6l8.87,8.81Z" fill="#37474f"/>
        <path id="Path_501" data-name="Path 501" d="M108.139,415.067l-.05.57-7.41-7.37-12.36-12.44h.55l12.16,12.09Z" fill="#37474f"/>
        <path id="Path_502" data-name="Path 502" d="M107.629,421.127l-.05.53-10.17-10.11-12.93-13.01c-.89-.9-1.78-1.8-2.66-2.71h.45c.83.81,1.66,1.62,2.48,2.44l13.01,12.92Z" fill="#37474f"/>
        <path id="Path_503" data-name="Path 503" d="M107.109,427.167l-.04.5-12.94-12.85-12.92-13.01q-2.955-2.985-5.89-5.98h.36c1.93,1.9,3.87,3.8,5.8,5.71l13.01,12.93Z" fill="#37474f"/>
        <path id="Path_504" data-name="Path 504" d="M106.6,433.247l-.04.43c-.9-.89-1.8-1.77-2.7-2.66l-13-12.93-12.93-13q-4.545-4.62-9.07-9.26h.19q4.59,4.47,9.16,8.99l13,12.92,12.93,13.01C104.959,431.577,105.779,432.407,106.6,433.247Z" fill="#37474f"/>
        <path id="Path_505" data-name="Path 505" d="M106.079,439.327l-.02.33c-1.83-1.77-3.65-3.57-5.47-5.37l-13.01-12.92-12.92-13.01q-6.12-6.18-12.17-12.42v-.04q6.255,6.075,12.44,12.19l13.01,12.92,12.92,13.01Q103.484,436.672,106.079,439.327Z" fill="#37474f"/>
        <path id="Path_506" data-name="Path 506" d="M105.569,445.417l-.02.23q-4.14-4.02-8.23-8.08l-13.01-12.93-12.92-13q-4.155-4.2-8.29-8.44v-.01l-.02-.24q4.3,4.185,8.58,8.41l13,12.93,12.93,13Q101.594,441.337,105.569,445.417Z" fill="#37474f"/>
        <path id="Path_507" data-name="Path 507" d="M104.829,451.3h-.12q-5.355-5.205-10.67-10.46l-13-12.92-12.93-13.01c-1.47-1.49-2.93-2.97-4.39-4.46l-.04-.44q2.355,2.31,4.7,4.63l13.01,12.92,12.92,13.01C97.829,444.127,101.349,447.7,104.829,451.3Z" fill="#37474f"/>
        <path id="Path_508" data-name="Path 508" d="M98.369,451.3h-.29q-3.675-3.585-7.31-7.19l-13.01-12.92-12.92-13.01c-.17-.17-.34-.35-.51-.52l-.05-.56c.28.26.55.54.83.81l13.01,12.93,12.92,13Q94.714,447.557,98.369,451.3Z" fill="#37474f"/>
        <path id="Path_509" data-name="Path 509" d="M91.879,451.3h-.41q-2-1.95-3.98-3.91l-13-12.93-9.55-9.6-.05-.64,9.95,9.89,12.93,13.01C89.139,448.507,90.519,449.9,91.879,451.3Z" fill="#37474f"/>
        <path id="Path_510" data-name="Path 510" d="M85.389,451.3h-.52c-.22-.21-.43-.43-.65-.64l-13.01-12.92-5.66-5.7-.06-.7,6.08,6.04,12.92,13.01C84.789,450.687,85.089,451,85.389,451.3Z" fill="#37474f"/>
        <path id="Path_511" data-name="Path 511" d="M78.869,451.3H78.3l-10.36-10.29-1.78-1.79v-.01l-.07-.73,2.2,2.18Z" fill="#37474f"/>
        <path id="Path_512" data-name="Path 512" d="M72.339,451.3h-.62l-4.96-4.93-.06-.75Z" fill="#37474f"/>
      </g>
      <rect id="Rectangle_77" data-name="Rectangle 77" width="1" height="55.59" transform="translate(61.991 395.982) rotate(-5.212)" fill="#37474f"/>
      <rect id="Rectangle_78" data-name="Rectangle 78" width="55.59" height="1" transform="translate(104.31 451.249) rotate(-84.735)" fill="#37474f"/>
      <rect id="Rectangle_79" data-name="Rectangle 79" width="53.04" height="8.979" transform="translate(59.564 389.771)" fill="#263238"/>
      <rect id="Rectangle_80" data-name="Rectangle 80" width="42.102" height="8.979" transform="translate(65.033 446.491)" fill="#263238"/>
      <path id="Path_513" data-name="Path 513" d="M103.433,443.113c1.6-.228,3.644-.228,3.758.683s-.607,1.4-.38,1.86a19.406,19.406,0,0,0,2.126,1.9,4.441,4.441,0,0,1,1.063,1.9c0,.228.379.607,0,1.063s-.594,1.141-.9,1.481a.9.9,0,0,0,0,1.328c.448.607.069,2.353-.615,2.96s-2.656-.835-3.264-.683-.683.452-1.214.833a5.937,5.937,0,0,1-3.188,1.292c-1.367,0-2.05-1.214-2.885-1.746a11.53,11.53,0,0,0-2.353-.911,4.294,4.294,0,0,1-1.746-1.29c-.152-.3-.683-.38-.455-1.214s.607-1.063.607-1.746.01-.8,0-1.578-.612-2.142-.081-2.749.911-1.518,1.746-1.518,3.492.455,3.492.455a7.141,7.141,0,0,0,.759-.987,2.2,2.2,0,0,1,1.84-1.062A5.547,5.547,0,0,0,103.433,443.113Z" fill="#f5f5f5"/>
      <path id="Path_514" data-name="Path 514" d="M93.983,450.818c1.085.5,2.19.95,3.3,1.386,1.1.457,2.205.9,3.319,1.312a30.377,30.377,0,0,0,3.337,1.083,2.668,2.668,0,0,0,.693.081l.671-.336a10.594,10.594,0,0,0,1.454-.895,4.049,4.049,0,0,0,1.1-1.13,2.379,2.379,0,0,0,.162-.323l.049-.167.022-.075s0,.012,0,.005a1.365,1.365,0,0,0-.293-.508,16.265,16.265,0,0,0-2.6-2.268c-.947-.706-1.934-1.368-2.942-1.995-.5-.324-1-.638-1.519-.931-.259-.147-.52-.288-.786-.417-.133-.067-.267-.13-.4-.184-.127-.034-.3-.144-.4-.028.09-.141.291-.057.425-.045.148.031.294.072.439.116.287.1.567.205.845.319.557.23,1.1.481,1.645.743q1.6.822,3.137,1.788a14.086,14.086,0,0,1,2.893,2.3,1.927,1.927,0,0,1,.527,1.054.887.887,0,0,1-.011.227l-.035.141-.076.263a3.264,3.264,0,0,1-.229.48,4.952,4.952,0,0,1-1.353,1.441,11.538,11.538,0,0,1-1.6.96l-.41.2-.2.1-.114.052a1.728,1.728,0,0,1-.223.066,2.864,2.864,0,0,1-1.076-.112,22.4,22.4,0,0,1-3.413-1.294A45.682,45.682,0,0,1,93.983,450.818Z" fill="#c7c7c7"/>
      <path id="Path_515" data-name="Path 515" d="M98.512,452.876a20.118,20.118,0,0,1,1.972-2.624c.354-.418.741-.807,1.133-1.2.2-.2.411-.376.629-.56a3.576,3.576,0,0,1,.8-.528,1.526,1.526,0,0,1,.15-.056,1.044,1.044,0,0,1,.321-.009.819.819,0,0,1,.418.224,3.1,3.1,0,0,1,.311.381,7.547,7.547,0,0,1,.458.724c.264.491.522.975.737,1.48a13.3,13.3,0,0,1,1.034,3.123l-1.724-2.757c-.292-.453-.56-.917-.856-1.354-.145-.218-.285-.443-.433-.634a2.331,2.331,0,0,0-.207-.244c0,.017.005,0,.075.034a.152.152,0,0,0,.117,0,.171.171,0,0,1-.037.022,2.963,2.963,0,0,0-.555.36l-.6.5-1.216,1.048C100.22,451.511,99.4,452.219,98.512,452.876Z" fill="#c7c7c7"/>
      <path id="Path_516" data-name="Path 516" d="M78.327,459.456c-.861.207-1.984.312-2.094-.182s.261-.8.113-1.038a10.486,10.486,0,0,0-1.262-.93,2.447,2.447,0,0,1-.68-.986c-.011-.124-.239-.313-.054-.582s.266-.655.419-.858a.5.5,0,0,0-.068-.727,1.624,1.624,0,0,1,.184-1.654c.344-.367,1.5.321,1.824.207s.351-.283.623-.519a3.259,3.259,0,0,1,1.68-.871c.749-.07,1.185.56,1.67.808a6.306,6.306,0,0,0,1.336.378,2.374,2.374,0,0,1,1.023.618c.1.158.394.173.312.642s-.279.613-.244.987.036.441.079.865.445,1.142.185,1.5-.421.879-.878.922-1.937-.071-1.937-.071a3.845,3.845,0,0,0-.365.58,1.211,1.211,0,0,1-.954.677A3.029,3.029,0,0,0,78.327,459.456Z" fill="#f5f5f5"/>
      <path id="Path_517" data-name="Path 517" d="M75.026,454.58c.461-.494.955-.933,1.426-1.395l.364-.331.186-.167a1,1,0,0,1,.367-.179,5.436,5.436,0,0,1,1.064-.134,10.513,10.513,0,0,1,2.069.115,3.363,3.363,0,0,1,1.11.343,1.129,1.129,0,0,1,.491.682,2.129,2.129,0,0,1,.081.632,6.58,6.58,0,0,1-.469,2.1,8.674,8.674,0,0,1-.444.956,4.237,4.237,0,0,1-.3.472,1.232,1.232,0,0,1-.556.431,5.178,5.178,0,0,1-2.129.138,14.284,14.284,0,0,1-1.99-.35c.671-.049,1.336-.058,1.991-.14a5.915,5.915,0,0,0,1.8-.357c.127-.067.093-.066.191-.2a4.171,4.171,0,0,0,.2-.391,7.95,7.95,0,0,0,.334-.878,6.073,6.073,0,0,0,.36-1.784.722.722,0,0,1,.226-.476,6.8,6.8,0,0,0-1.088-.25,13.736,13.736,0,0,0-1.9-.265,6.486,6.486,0,0,0-.923-.005c-.06.006-.117.029-.1,0l-.21.135-.428.274C76.184,453.9,75.622,454.267,75.026,454.58Z" fill="#c7c7c7"/>
      <path id="Path_518" data-name="Path 518" d="M77.091,453.306c.037.638.019,1.252.06,1.813.025.259.083.579.151.6.009.014,0-.021-.024-.021.017-.01,0,0,.057,0a2.243,2.243,0,0,0,.345-.039c.538-.089,1.119-.25,1.707-.374a12.609,12.609,0,0,1,1.833-.3,7.615,7.615,0,0,1-3.379,1.659,2.977,2.977,0,0,1-.566.027,1.31,1.31,0,0,1-.387-.09.845.845,0,0,1-.36-.321,1.689,1.689,0,0,1-.154-1.174A4.492,4.492,0,0,1,77.091,453.306Z" fill="#c7c7c7"/>
      <path id="Path_519" data-name="Path 519" d="M71.085,446.439c-.445-1.349-.366-2.909-1.885-2.745s-2.429-1.733-3.112-2.189-3.112,0-3.644.456-.759,1.341-1.29,1.733-1.29,1-1.973,1.607a2.991,2.991,0,0,0-1.367,2.96,6.865,6.865,0,0,0,1.442,2.8c.456.766-.3,2.132.3,3.878s3.568,2.429,4.327,2.126,2.786-1.6,3.9-1.6,1.415.911,2.4.38,2.429-1.67,2.505-2.125-.835-.857-.531-1.567,1.518-2.044,1.366-2.934S71.425,447.472,71.085,446.439Z" fill="#f5f5f5"/>
      <path id="Path_520" data-name="Path 520" d="M68.272,443.533a42.093,42.093,0,0,0-5.476,2.183,3.115,3.115,0,0,0-.548.361c-.068.018-.114.347-.157.557-.083.474-.141.963-.193,1.449-.1.973-.173,1.955-.178,2.924a8.828,8.828,0,0,0,.076,1.409,1.277,1.277,0,0,0,.1.378,1.8,1.8,0,0,0,.536.163,14.739,14.739,0,0,0,2.858.14,13.66,13.66,0,0,0,1.424-.112c.41-.067.968-.2,1.431-.287.967-.2,1.938-.381,2.867-.622.225-.061.465-.12.652-.192a.556.556,0,0,0,.113-.048s.051-.023.022-.007a.16.16,0,0,0-.07.1.482.482,0,0,0-.036.36.442.442,0,0,0,.1.167.339.339,0,0,0,.06.052l-.014-.007-.132-.05c-.421-.14-.913-.254-1.384-.366l-2.888-.642c-.967-.213-1.934-.428-2.9-.672-.484-.125-.967-.25-1.458-.421a2.449,2.449,0,0,1-.816-.423.741.741,0,0,1-.084-.1.557.557,0,0,1-.073-.185,1.8,1.8,0,0,1,0-.18.885.885,0,0,1,.054-.277,2.428,2.428,0,0,1,.174-.4,12.555,12.555,0,0,1,1.881-2.413c.176-.181.357-.359.549-.53.1-.085.192-.171.3-.252a1.731,1.731,0,0,1,.166-.12.619.619,0,0,1,.811.009,2.373,2.373,0,0,1,.326.261,5.9,5.9,0,0,1,.526.564,38.012,38.012,0,0,1,3.228,5.006,47.017,47.017,0,0,0-3.6-4.681c-.166-.174-.335-.345-.509-.494a1.349,1.349,0,0,0-.39-.25c.054-.034-.045.033-.071.054a1.231,1.231,0,0,0-.128.1c-.087.072-.172.155-.257.237-.169.166-.333.343-.494.523a11.988,11.988,0,0,0-1.655,2.327,1.625,1.625,0,0,0-.106.278c-.006.032-.029.1-.016.085l-.005.006a.308.308,0,0,0-.039-.1.153.153,0,0,0-.025-.034,2.966,2.966,0,0,0,.519.2c.448.141.922.262,1.4.375.952.225,1.917.424,2.884.622l3.705.71c.491.11.17.1.69.261.066.021.136.046.215.079a1.136,1.136,0,0,1,.151.079.626.626,0,0,1,.132.108.6.6,0,0,1,.12.206.553.553,0,0,1-.039.4,1.007,1.007,0,0,1-.205.223.777.777,0,0,1-.139.084,1.332,1.332,0,0,1-.224.1,6.834,6.834,0,0,1-.765.239c-.989.239-1.963.41-2.936.59-.511.086-.914.185-1.48.273a14.6,14.6,0,0,1-1.531.1,15.412,15.412,0,0,1-3.05-.2,2.347,2.347,0,0,1-.858-.313.966.966,0,0,1-.347-.521,1.828,1.828,0,0,1-.087-.435,9.592,9.592,0,0,1-.016-1.55c.053-1.007.174-1.995.32-2.982.077-.493.157-.984.268-1.479.091-.252.032-.479.333-.816a2.919,2.919,0,0,1,.7-.426,24.811,24.811,0,0,1,2.823-.994C66.348,444,67.3,443.734,68.272,443.533Z" fill="#c7c7c7"/>
    </g>
  </g>
</svg>
