<svg width="1263" height="375" viewBox="0 0 1263 375" fill="none" xmlns="http://www.w3.org/2000/svg">
<path d="M66.3306 39.6222C66.3306 32.2744 65.0372 25.8978 63.0414 18.9127C62.0736 15.5254 58.8455 22.349 58.5341 22.8719C50.6696 36.0731 45.8463 50.9306 41.0528 65.4483C27.0929 107.727 15.0935 151.423 9.56206 195.675C8.5214 204 3.8568 226.219 18.0895 220.526" stroke="#84CC16" stroke-width="15" stroke-linecap="round"/>
<path d="M29.0534 88.9598C25.5487 85.3149 19.5761 79.642 18.5768 74.6458C16.6163 64.8433 30.2333 56.4669 36.4845 52.048C70.1285 28.2652 116.215 10.6471 157.696 8.07066C192.233 5.92553 150.218 53.271 143.2 61.7937C109.967 102.148 69.3354 133.222 26.0688 161.687C23.0635 163.664 19.098 164.98 24.1806 161.2C34.3011 153.671 46.5087 148.979 58.7777 154.378C80.7964 164.066 87.9111 192.971 92.7657 214.07C98.7919 240.26 102.923 266.876 108.968 293.071C114.307 316.209 122.009 358.784 149.839 365.92C166.026 370.07 184.067 359.352 195.948 349.535C217.489 331.737 232.043 308.873 246.138 285.213" stroke="#84CC16" stroke-width="15" stroke-linecap="round"/>
<path d="M220.921 163.514C218.242 156.965 218.797 147.855 213.186 142.805C205.946 136.288 197.481 148.446 193.999 153.281C181.411 170.758 172.053 194.908 170.853 216.506C170.364 225.305 176.501 242.037 187.969 240.444C201.543 238.559 213.189 218.206 218.85 207.735C226.987 192.687 232.879 173.064 231.763 155.778C231.411 150.313 228.569 135.947 220.678 136.104C207.245 136.373 200.148 155.51 197.288 165.707C191.589 186.032 196.877 225.196 226.525 218.09C245.028 213.655 259.647 199.369 270.563 184.467C276.497 176.368 283.695 166.637 285.547 156.449C286.166 153.044 280.906 165.779 280.735 166.316C277.043 177.911 274.22 188.384 276.837 200.548C283.221 230.212 314.937 183.284 319.779 175.514C324.532 167.887 327.205 159.291 331.657 151.697C334.144 147.455 329.748 160.368 329.464 161.626C327.603 169.866 318.339 214.798 337.504 212.608C350.598 211.112 360.692 196.893 367.655 186.965C374.247 177.564 379.592 166.69 384.04 156.083C384.252 155.578 386.476 148.385 386.476 152.185C386.476 163.629 383.859 174.993 383.187 186.416C382.746 193.917 382.202 201.117 384.04 208.466C385.715 215.168 392.445 203.605 393.724 201.461C395.973 197.694 414.499 149.348 421.804 154.134C429.112 158.922 429.286 172.252 430.819 179.777C432.828 189.638 433.259 200.392 439.164 208.953C452.58 228.408 481.398 192.964 490.633 184.346" stroke="#84CC16" stroke-width="15" stroke-linecap="round"/>
<path d="M522.428 151.454C518.865 147.446 518.962 137.989 510.185 144.023C496.6 153.363 477.974 174.765 482.532 192.995C488.718 217.739 523.3 183.283 528.763 175.635C533.38 169.172 537.142 161.564 538.874 153.768C540.035 148.545 539.139 152.132 538.326 155.474C535.706 166.245 528.179 192.133 536.742 201.766C548.911 215.456 579.408 163.761 582.973 157.788C595.758 136.369 604.657 112.77 604.657 87.5587C604.657 85.5339 604.527 84.0427 602.83 86.6451C593.991 100.198 588.212 117.149 582.851 132.267C577.234 148.107 558.953 195.834 583.217 206.882C597.034 213.174 613.773 202.163 624.027 194.091C643.494 178.766 661.864 159.544 675.313 138.663C682.374 127.7 689.421 116.029 691.028 102.847C691.172 101.666 692.507 93.3512 689.688 94.0761C686.924 94.7868 683.924 97.4315 681.648 98.949C670.742 106.22 660.351 114.218 649.975 122.217C631.97 136.097 613.315 149.768 596.617 165.22C591.148 170.28 583.802 177.055 588.455 185.198C593.875 194.684 606.558 198.689 615.865 202.984C624.223 206.842 635.657 210.004 641.447 217.724C649.494 228.454 644.72 245.12 642.787 257.073C638.024 286.534 637.943 315.908 667.395 331.871C687.288 342.652 709.75 337.951 727.453 325.78" stroke="#84CC16" stroke-width="15" stroke-linecap="round"/>
<path d="M877.658 36.3331C879.308 30.8345 879.939 25.1582 880.947 19.5218C882.841 8.93901 878.511 21.1596 876.927 24.6383C857.939 66.3342 837.594 111.477 830.513 156.997C830.285 158.461 827.002 188.908 832.28 179.594C847.089 153.461 853.102 120.97 858.898 91.8834C862.212 75.2485 863.989 53.9658 872.785 39.0132C875.386 34.591 880.867 42.4565 882.044 44.3733C893.922 63.7254 897.604 88.7971 901.048 110.766C907.508 151.978 907.295 192.474 906.164 234.048C905.839 245.989 905.068 257.918 905.068 269.864C905.068 274.945 905.929 281.142 902.875 285.213" stroke="#84CC16" stroke-width="15" stroke-linecap="round"/>
<path d="M843.67 201.888C836.571 200.062 828.207 196.903 823.326 191.167C817.617 184.459 839.691 169.669 842.939 167.169C875.293 142.262 911.185 118.244 947.827 99.9236" stroke="#84CC16" stroke-width="15" stroke-linecap="round"/>
<path d="M940.152 152.55C941.721 156.211 963.868 129.156 964.943 127.76C970.432 120.623 975.142 113.27 979.135 105.284C980.054 103.445 977.909 109.209 977.368 111.192C975.558 117.829 975.29 123.84 977.49 130.44C981.362 142.055 992.945 148.496 998.261 159.129C1002.63 167.864 995.607 176.746 990.16 183.615C988.999 185.078 982.977 192.495 989.246 189.827C1005.33 182.983 1019.3 166.155 1028.78 152.124C1032.51 146.592 1035.65 140.864 1038.58 134.886C1039.32 133.383 1040.7 128.591 1040.53 130.257C1039.51 140.497 1036.28 149.887 1043.82 159.189C1063.93 183.979 1108.17 169.873 1118.38 142.074C1120.51 136.255 1121.97 128.838 1118.74 140.49C1109.67 173.254 1101.44 206.286 1093.28 239.287C1085.64 270.182 1062.41 349.354 1015.8 311.283C992.052 291.88 998.316 261.605 1009.96 237.033C1025.64 203.915 1056.55 183.128 1085.97 163.514" stroke="#84CC16" stroke-width="15" stroke-linecap="round"/>
<path d="M1220.83 130.622C1225.41 125.758 1223.95 121.926 1216.2 122.46C1191.79 124.144 1163.86 140.518 1145.6 156.266C1140.82 160.392 1126.38 174.413 1140.43 177.767C1156.59 181.628 1176.27 168.051 1187.69 158.154C1195.89 151.051 1204.45 142.692 1210.35 133.424C1214.23 127.323 1207.15 147.532 1205.72 154.621C1204 163.17 1202.77 172.798 1211.08 178.254C1224.95 187.353 1243.56 172.793 1254.82 165.707" stroke="#84CC16" stroke-width="15" stroke-linecap="round"/>
</svg>
