<svg xmlns="http://www.w3.org/2000/svg" width="422.242" height="439.302" viewBox="0 0 422.242 439.302">
  <g id="Achievement" transform="translate(-39.129)">
    <g id="Group_428" data-name="Group 428">
      <rect id="Rectangle_248" data-name="Rectangle 248" width="27.101" height="11.452" transform="translate(445.753 353.963) rotate(180)" fill="none" stroke="#ebebeb" stroke-miterlimit="10" stroke-width="1"/>
      <rect id="Rectangle_249" data-name="Rectangle 249" width="27.101" height="11.452" transform="translate(460.871 368.404) rotate(180)" fill="none" stroke="#ebebeb" stroke-miterlimit="10" stroke-width="1"/>
      <rect id="Rectangle_250" data-name="Rectangle 250" width="27.101" height="11.452" transform="translate(430.635 368.404) rotate(180)" fill="#ebebeb"/>
      <rect id="Rectangle_251" data-name="Rectangle 251" width="27.101" height="11.452" transform="translate(107.538 196.992) rotate(180)" fill="none" stroke="#ebebeb" stroke-miterlimit="10" stroke-width="1"/>
      <rect id="Rectangle_252" data-name="Rectangle 252" width="27.101" height="11.452" transform="translate(122.656 211.433) rotate(180)" fill="#ebebeb"/>
      <rect id="Rectangle_253" data-name="Rectangle 253" width="27.101" height="11.452" transform="translate(92.421 211.433) rotate(180)" fill="none" stroke="#ebebeb" stroke-miterlimit="10" stroke-width="1"/>
      <rect id="Rectangle_254" data-name="Rectangle 254" width="27.101" height="11.452" transform="translate(81.347 368.404) rotate(180)" fill="#ebebeb"/>
      <rect id="Rectangle_255" data-name="Rectangle 255" width="27.101" height="11.452" transform="translate(81.347 58.462) rotate(180)" fill="none" stroke="#ebebeb" stroke-miterlimit="10" stroke-width="1"/>
      <rect id="Rectangle_256" data-name="Rectangle 256" width="27.101" height="11.452" transform="translate(66.23 72.902) rotate(180)" fill="#ebebeb"/>
      <rect id="Rectangle_257" data-name="Rectangle 257" width="27.101" height="11.452" transform="translate(460.871 58.474) rotate(180)" fill="none" stroke="#ebebeb" stroke-miterlimit="10" stroke-width="1"/>
      <rect id="Rectangle_258" data-name="Rectangle 258" width="27.101" height="11.452" transform="translate(408.029 227.232) rotate(180)" fill="#ebebeb"/>
      <rect id="Rectangle_259" data-name="Rectangle 259" width="27.101" height="11.452" transform="translate(300.109 321.678) rotate(180)" fill="#ebebeb"/>
      <rect id="Rectangle_260" data-name="Rectangle 260" width="27.101" height="11.452" transform="translate(271.207 86.674)" fill="none" stroke="#ebebeb" stroke-miterlimit="10" stroke-width="1"/>
      <rect id="Rectangle_261" data-name="Rectangle 261" width="27.101" height="11.452" transform="translate(256.089 72.233)" fill="none" stroke="#ebebeb" stroke-miterlimit="10" stroke-width="1"/>
    </g>
    <g id="Group_433" data-name="Group 433">
      <g id="Group_430" data-name="Group 430">
        <line id="Line_3" data-name="Line 3" y1="97.885" transform="translate(419.468)" fill="none" stroke="#c7c7c7" stroke-miterlimit="10" stroke-width="1"/>
        <g id="Group_429" data-name="Group 429">
          <path id="Path_940" data-name="Path 940" d="M378.068,137.792l3.33,7.32h76.15l3.32-7.32-32.42-22.44h-17.96Z" fill="#ebebeb"/>
          <path id="Path_941" data-name="Path 941" d="M408.238,93.732l2.25,21.62h17.96l2.25-21.62Z" fill="#dbdbdb"/>
          <path id="Path_942" data-name="Path 942" d="M378.071,137.8l3.33,7.32h76.15l3.32-7.32Z" fill="#dbdbdb"/>
        </g>
      </g>
      <g id="Group_432" data-name="Group 432">
        <line id="Line_4" data-name="Line 4" y1="55.23" transform="translate(335.999)" fill="none" stroke="#c7c7c7" stroke-miterlimit="10" stroke-width="1"/>
        <g id="Group_431" data-name="Group 431">
          <path id="Path_943" data-name="Path 943" d="M294.6,95.137l3.33,7.32h76.15l3.32-7.32L344.979,72.7h-17.96Z" fill="#ebebeb"/>
          <path id="Path_944" data-name="Path 944" d="M324.769,51.077l2.25,21.62h17.96l2.25-21.62Z" fill="#dbdbdb"/>
          <path id="Path_945" data-name="Path 945" d="M294.6,95.14l3.33,7.32h76.15l3.32-7.32Z" fill="#dbdbdb"/>
        </g>
      </g>
    </g>
    <g id="Group_443" data-name="Group 443">
      <rect id="Rectangle_262" data-name="Rectangle 262" width="331.724" height="231.782" transform="translate(84.51 51.334)" fill="#dbdbdb"/>
      <g id="Group_435" data-name="Group 435">
        <rect id="Rectangle_263" data-name="Rectangle 263" width="331.724" height="9.14" transform="translate(84.51 51.147)" fill="#455a64"/>
        <g id="Group_434" data-name="Group 434">
          <path id="Path_948" data-name="Path 948" d="M92.427,55.717A1.987,1.987,0,1,1,90.44,53.73,1.986,1.986,0,0,1,92.427,55.717Z" fill="#c7c7c7"/>
          <path id="Path_949" data-name="Path 949" d="M100.542,55.717a1.987,1.987,0,1,1-1.987-1.987A1.986,1.986,0,0,1,100.542,55.717Z" fill="#fff"/>
          <path id="Path_950" data-name="Path 950" d="M108.657,55.717a1.987,1.987,0,1,1-1.988-1.987A1.987,1.987,0,0,1,108.657,55.717Z" fill="#84cc16"/>
        </g>
      </g>
      <g id="Group_442" data-name="Group 442">
        <rect id="Rectangle_264" data-name="Rectangle 264" width="272.902" height="179.458" transform="translate(113.921 82.931)" fill="#fff"/>
        <path id="Path_951" data-name="Path 951" d="M377.453,101.731V243.444a9.266,9.266,0,0,0-9.273,9.263v.153H132.563v-.153a9.266,9.266,0,0,0-9.272-9.263V101.731a9.274,9.274,0,0,0,9.272-9.273H368.18A9.275,9.275,0,0,0,377.453,101.731Z" fill="none" stroke="#84cc16" stroke-miterlimit="10" stroke-width="0.5"/>
        <g id="Group_441" data-name="Group 441">
          <g id="Group_436" data-name="Group 436">
            <path id="Path_952" data-name="Path 952" d="M177.755,121.306a7.067,7.067,0,0,1,7.065-6.929,7.2,7.2,0,0,1,4.445,1.5,1.1,1.1,0,0,1-1.347,1.751,4.8,4.8,0,0,0-3.1-1.058,5.092,5.092,0,0,0-3.465,1.386,4.747,4.747,0,0,0-1.4,3.349,4.681,4.681,0,0,0,1.4,3.349,5.092,5.092,0,0,0,3.465,1.386,4.833,4.833,0,0,0,3.1-1.059,1.168,1.168,0,0,1,1.54.212,1.136,1.136,0,0,1-.193,1.54,7.2,7.2,0,0,1-4.445,1.5A7.042,7.042,0,0,1,177.755,121.306Z" fill="#84cc16"/>
            <path id="Path_953" data-name="Path 953" d="M193.193,127.176V115.82a1.044,1.044,0,0,1,1.058-1.059h6.294a1.069,1.069,0,0,1,1.059,1.059,1.085,1.085,0,0,1-1.059,1.078h-5.216v3.522h4.484a1.069,1.069,0,0,1,0,2.137h-4.484V126.1h5.216a1.068,1.068,0,0,1,0,2.136h-6.236c-.039,0-.039-.019-.039-.019l-.019.019A1.055,1.055,0,0,1,193.193,127.176Z" fill="#84cc16"/>
            <path id="Path_954" data-name="Path 954" d="M213.9,126.638a1.06,1.06,0,0,1-.674,1.346,1.657,1.657,0,0,1-.423.058h-.019a1.4,1.4,0,0,1-.751-.211,1.9,1.9,0,0,1-.616-.674,5.166,5.166,0,0,1-.4-2.31,1.617,1.617,0,0,0-.231-.827,1.8,1.8,0,0,0-.577-.559,3.652,3.652,0,0,0-1.078-.461h-2.272v4.176a1.072,1.072,0,0,1-1.077,1.059,1.056,1.056,0,0,1-1.059-1.059V115.82a1.044,1.044,0,0,1,1.059-1.059h3.445a4.116,4.116,0,0,1,4.119,4.139,4.075,4.075,0,0,1-1.5,3.156,3,3,0,0,1,.673.712,3.649,3.649,0,0,1,.635,2.079,4.9,4.9,0,0,0,.077,1.136A1.035,1.035,0,0,1,213.9,126.638Zm-2.694-7.738a1.985,1.985,0,0,0-1.983-2h-2.368v3.965h2.368A1.976,1.976,0,0,0,211.208,118.9Z" fill="#84cc16"/>
            <path id="Path_955" data-name="Path 955" d="M224.874,116.9h-3.06v10.278a1.044,1.044,0,0,1-1.059,1.059,1.055,1.055,0,0,1-1.058-1.059V116.9h-3.042a1.072,1.072,0,0,1-1.058-1.078,1.044,1.044,0,0,1,1.058-1.059h8.219a1.056,1.056,0,0,1,1.059,1.059A1.085,1.085,0,0,1,224.874,116.9Z" fill="#84cc16"/>
            <path id="Path_956" data-name="Path 956" d="M229.243,115.82a1.044,1.044,0,0,1,1.059-1.059,1.072,1.072,0,0,1,1.077,1.059v11.356a1.072,1.072,0,0,1-1.077,1.059,1.044,1.044,0,0,1-1.059-1.059Z" fill="#84cc16"/>
            <path id="Path_957" data-name="Path 957" d="M234.979,127.176V115.82a1.056,1.056,0,0,1,1.059-1.059h6.294a1.069,1.069,0,0,1,0,2.137h-5.216v3.522H241.6a1.069,1.069,0,0,1,0,2.137h-4.484v4.619a1.073,1.073,0,0,1-1.078,1.059A1.056,1.056,0,0,1,234.979,127.176Z" fill="#84cc16"/>
            <path id="Path_958" data-name="Path 958" d="M246.759,115.82a1.044,1.044,0,0,1,1.059-1.059,1.072,1.072,0,0,1,1.077,1.059v11.356a1.072,1.072,0,0,1-1.077,1.059,1.044,1.044,0,0,1-1.059-1.059Z" fill="#84cc16"/>
            <path id="Path_959" data-name="Path 959" d="M251.9,121.306a7.065,7.065,0,0,1,7.064-6.929,7.2,7.2,0,0,1,4.446,1.5,1.138,1.138,0,0,1,.192,1.539,1.126,1.126,0,0,1-1.54.212,4.8,4.8,0,0,0-3.1-1.058,5.1,5.1,0,0,0-3.465,1.386,4.743,4.743,0,0,0-1.4,3.349,4.676,4.676,0,0,0,1.4,3.349,5.1,5.1,0,0,0,3.465,1.386,4.833,4.833,0,0,0,3.1-1.059,1.168,1.168,0,0,1,1.54.212,1.137,1.137,0,0,1-.192,1.54,7.207,7.207,0,0,1-4.446,1.5A7.04,7.04,0,0,1,251.9,121.306Z" fill="#84cc16"/>
            <path id="Path_960" data-name="Path 960" d="M273.916,125.059H269.24l-.943,2.5a1.083,1.083,0,0,1-1,.674,1.106,1.106,0,0,1-.366-.058,1.093,1.093,0,0,1-.636-1.386l4.254-11.337a1.077,1.077,0,0,1,1.021-.673,1.056,1.056,0,0,1,1.019.673l4.254,11.337a1.092,1.092,0,0,1-.634,1.386,1.077,1.077,0,0,1-1.348-.616Zm-.788-2.117-1.559-4.138-1.559,4.138Z" fill="#84cc16"/>
            <path id="Path_961" data-name="Path 961" d="M285.793,116.9h-3.06v10.278a1.044,1.044,0,0,1-1.06,1.059,1.055,1.055,0,0,1-1.058-1.059V116.9h-3.041a1.072,1.072,0,0,1-1.059-1.078,1.044,1.044,0,0,1,1.059-1.059h8.219a1.056,1.056,0,0,1,1.058,1.059A1.085,1.085,0,0,1,285.793,116.9Z" fill="#84cc16"/>
            <path id="Path_962" data-name="Path 962" d="M290.163,115.82a1.044,1.044,0,0,1,1.058-1.059,1.073,1.073,0,0,1,1.078,1.059v11.356a1.072,1.072,0,0,1-1.078,1.059,1.044,1.044,0,0,1-1.058-1.059Z" fill="#84cc16"/>
            <path id="Path_963" data-name="Path 963" d="M306.523,116.436a7.068,7.068,0,0,1,0,9.739,6.3,6.3,0,0,1-4.6,2.06,6.491,6.491,0,0,1-4.715-2.06,7.173,7.173,0,0,1,0-9.739,6.422,6.422,0,0,1,4.715-2.059A6.232,6.232,0,0,1,306.523,116.436Zm-.25,4.87a4.993,4.993,0,0,0-1.308-3.369,4.154,4.154,0,0,0-6.159,0,4.9,4.9,0,0,0-1.31,3.369,4.812,4.812,0,0,0,1.31,3.349,4.114,4.114,0,0,0,6.159,0A4.906,4.906,0,0,0,306.273,121.306Z" fill="#84cc16"/>
            <path id="Path_964" data-name="Path 964" d="M313.876,127.176a1.049,1.049,0,1,1-2.1,0v-11.2a1.035,1.035,0,0,1,.423-.885,1.058,1.058,0,0,1,1.462.231l6.218,8.6v-7.93a1.047,1.047,0,0,1,1.039-1.039,1.064,1.064,0,0,1,1.059,1.039v11.183a1.068,1.068,0,0,1-1.059,1.059,1.043,1.043,0,0,1-.789-.385.483.483,0,0,1-.1-.115l-6.16-8.546Z" fill="#84cc16"/>
          </g>
          <line id="Line_5" data-name="Line 5" x2="72.375" transform="translate(214.184 142.825)" fill="none" stroke="#263238" stroke-miterlimit="10" stroke-width="0.5"/>
          <line id="Line_6" data-name="Line 6" x2="112.609" transform="translate(194.067 148.455)" fill="none" stroke="#263238" stroke-miterlimit="10" stroke-width="0.5"/>
          <g id="Group_437" data-name="Group 437">
            <line id="Line_7" data-name="Line 7" x2="73.406" transform="translate(275.368 217.841)" fill="none" stroke="#263238" stroke-miterlimit="10" stroke-width="0.5"/>
            <line id="Line_8" data-name="Line 8" x2="73.406" transform="translate(151.969 217.841)" fill="none" stroke="#263238" stroke-miterlimit="10" stroke-width="0.5"/>
          </g>
          <line id="Line_9" data-name="Line 9" x1="134.608" transform="translate(183.068 176.266)" fill="none" stroke="#263238" stroke-miterlimit="10" stroke-width="0.5"/>
          <line id="Line_10" data-name="Line 10" x1="170.124" transform="translate(165.309 170.635)" fill="none" stroke="#263238" stroke-miterlimit="10" stroke-width="0.5"/>
          <line id="Line_11" data-name="Line 11" x1="159.397" transform="translate(170.673 181.896)" fill="none" stroke="#263238" stroke-miterlimit="10" stroke-width="0.5"/>
          <line id="Line_12" data-name="Line 12" x1="90.54" transform="translate(205.102 187.527)" fill="none" stroke="#263238" stroke-miterlimit="10" stroke-width="0.5"/>
          <path id="Path_965" data-name="Path 965" d="M288.538,214.1q1.85-1.274,3.8-2.4a17.961,17.961,0,0,1,4.109-1.851,4.237,4.237,0,0,1,.567-.107.593.593,0,0,1,.625.207,2.138,2.138,0,0,1,.261,1.163,13.222,13.222,0,0,1-.232,2.256c-.261,1.483-.629,2.939-1.033,4.383a67.083,67.083,0,0,1-2.983,8.489,13.641,13.641,0,0,1-1.065,2.018,2.586,2.586,0,0,1-.4.47.632.632,0,0,1-.39.174.413.413,0,0,1-.271-.1l-.135-.137a2.238,2.238,0,0,1-.318-1.2,15.156,15.156,0,0,1,.79-4.471,26.107,26.107,0,0,1,1.689-4.187,12.737,12.737,0,0,1,2.636-3.677,4.155,4.155,0,0,1,2.07-.986,2.417,2.417,0,0,1,1.172.1,1.826,1.826,0,0,1,.824.847,5.547,5.547,0,0,0,.623.9.907.907,0,0,0,.907.3,6,6,0,0,0,1.882-1.1c.3-.225.592-.456.9-.673a4.081,4.081,0,0,1,.491-.3.567.567,0,0,1,.621-.031c.293.367.219.758.365,1.092a.663.663,0,0,0,.768.487,6.692,6.692,0,0,0,1.647-1.436c.508-.546,1-1.109,1.489-1.674.978-1.131,1.941-2.276,2.941-3.392.5-.558,1.011-1.109,1.553-1.633a9.081,9.081,0,0,1,.862-.744,2.608,2.608,0,0,1,.508-.3.818.818,0,0,1,.329-.075.439.439,0,0,1,.346.186,1.992,1.992,0,0,1,.153,1.194,9.763,9.763,0,0,1-.18,1.125,24.547,24.547,0,0,1-2.387,6.332,4.506,4.506,0,0,1-.708.939.823.823,0,0,1-.66.266,2.006,2.006,0,0,1-.6-.17,2.779,2.779,0,0,1-1.508-1.833,1.025,1.025,0,0,1,.087-.7.709.709,0,0,1,.289-.278.76.76,0,0,1,.385-.083,4.285,4.285,0,0,1,1.161.276c.719.254,1.406.557,2.093.855s1.368.6,2.055.881c.344.137.689.271,1.033.371a2.736,2.736,0,0,0,.5.107.738.738,0,0,0,.41-.086c.561-.284.94-.98,1.5-1.534a1.825,1.825,0,0,1,1.146-.584.584.584,0,0,1,.46.149.609.609,0,0,1,.155.458,2.965,2.965,0,0,1-.111.609c-.1.338-.145.763-.051.779.106.1.54.033.857-.048a5.724,5.724,0,0,0,1.888-.987,11.084,11.084,0,0,1,.954-.643,1.875,1.875,0,0,1,1.249-.3,4.637,4.637,0,0,1,1.917,1.391,5.24,5.24,0,0,0,.8.693c.134.082.258.11.289.079a2.925,2.925,0,0,0,.429-.264,17.488,17.488,0,0,0,1.689-1.42,19.33,19.33,0,0,0,2.892-3.333,3.742,3.742,0,0,0,.724-1.935c0-.67-.689-.977-1.407-1.09a12.2,12.2,0,0,0-4.385.062,10.809,10.809,0,0,0-2.119.6,4.45,4.45,0,0,0-.947.514c-.276.2-.522.493-.442.759s.4.494.713.652.679.276,1.023.411a20.288,20.288,0,0,0,2.137.629,49.43,49.43,0,0,0,8.9.85l0,.052a46.949,46.949,0,0,1-8.956-.653,20.578,20.578,0,0,1-2.175-.609c-.353-.133-.71-.241-1.062-.412a1.573,1.573,0,0,1-.884-.836,1.113,1.113,0,0,1,.546-1.106,4.806,4.806,0,0,1,1.013-.568,11.121,11.121,0,0,1,2.182-.652,12.578,12.578,0,0,1,4.538-.12,3.179,3.179,0,0,1,1.138.382,1.382,1.382,0,0,1,.65,1.1,4.138,4.138,0,0,1-.77,2.227,18.528,18.528,0,0,1-2.951,3.451,18.165,18.165,0,0,1-1.741,1.47,3.372,3.372,0,0,1-.527.32.838.838,0,0,1-.77-.112,5.467,5.467,0,0,1-.9-.768,4.39,4.39,0,0,0-1.646-1.242c-.551-.082-1.193.433-1.784.854a6.232,6.232,0,0,1-2.066,1.076,1.669,1.669,0,0,1-1.325-.049.812.812,0,0,1-.26-.753,3.9,3.9,0,0,1,.12-.591,2.7,2.7,0,0,0,.1-.491c0-.066-.017-.092,0-.066s0,0-.064,0a1.317,1.317,0,0,0-.8.429c-.512.473-.858,1.2-1.649,1.62a1.255,1.255,0,0,1-.674.131,3.273,3.273,0,0,1-.6-.129c-.374-.112-.726-.252-1.077-.393-.7-.287-1.38-.6-2.063-.9s-1.365-.606-2.055-.854a4.006,4.006,0,0,0-1.012-.255c-.24-.025-.373.195-.308.516a2.367,2.367,0,0,0,1.241,1.53,1.567,1.567,0,0,0,.471.141c.1.028.2-.044.336-.155a4.1,4.1,0,0,0,.646-.842,21.75,21.75,0,0,0,1.8-4.054,21.512,21.512,0,0,0,.617-2.138,9.526,9.526,0,0,0,.189-1.088,1.85,1.85,0,0,0-.086-1c-.1-.2-.532.053-.8.247a8.828,8.828,0,0,0-.841.714c-.539.511-1.051,1.055-1.554,1.6-1.007,1.1-1.979,2.24-2.969,3.363-.495.561-.992,1.121-1.508,1.666a6.6,6.6,0,0,1-1.735,1.467.833.833,0,0,1-.962-.588c-.143-.351-.131-.794-.328-1.017-.092-.087-.276-.02-.43.061a3.915,3.915,0,0,0-.464.289c-.3.216-.592.45-.888.679a6.11,6.11,0,0,1-1.955,1.164,1.144,1.144,0,0,1-1.122-.353,5.741,5.741,0,0,1-.666-.932c-.2-.306-.4-.636-.7-.734a2.177,2.177,0,0,0-1.042-.073,3.873,3.873,0,0,0-1.915.943,12.507,12.507,0,0,0-2.522,3.606,25.717,25.717,0,0,0-1.622,4.144,14.792,14.792,0,0,0-.728,4.338,1.889,1.889,0,0,0,.236.943l.062.063c.019.01-.016,0-.016,0a.335.335,0,0,0,.1-.069,2.206,2.206,0,0,0,.319-.384,15.09,15.09,0,0,0,1.037-1.941,66.69,66.69,0,0,0,3.049-8.4c.416-1.432.8-2.877,1.07-4.339a12.964,12.964,0,0,0,.25-2.2,1.942,1.942,0,0,0-.193-1,.322.322,0,0,0-.378-.106,4.144,4.144,0,0,0-.535.1,19.56,19.56,0,0,0-4.088,1.745q-1.971,1.062-3.853,2.289Z" fill="#263238"/>
          <path id="Path_966" data-name="Path 966" d="M206.851,214.1q-1.851-1.274-3.8-2.4a17.969,17.969,0,0,0-4.11-1.851,4.235,4.235,0,0,0-.567-.107.593.593,0,0,0-.625.207,2.138,2.138,0,0,0-.261,1.163,13.326,13.326,0,0,0,.233,2.256c.26,1.483.629,2.939,1.032,4.383a67.076,67.076,0,0,0,2.983,8.489,13.554,13.554,0,0,0,1.066,2.018,2.579,2.579,0,0,0,.4.47.632.632,0,0,0,.39.174.413.413,0,0,0,.271-.1l.135-.137a2.238,2.238,0,0,0,.318-1.2,15.125,15.125,0,0,0-.79-4.471,26.111,26.111,0,0,0-1.689-4.187,12.737,12.737,0,0,0-2.636-3.677,4.155,4.155,0,0,0-2.07-.986,2.417,2.417,0,0,0-1.172.1,1.819,1.819,0,0,0-.823.847,5.489,5.489,0,0,1-.624.9.907.907,0,0,1-.907.3,5.979,5.979,0,0,1-1.881-1.1c-.3-.225-.593-.456-.9-.673a4,4,0,0,0-.491-.3.567.567,0,0,0-.621-.031c-.292.367-.219.758-.365,1.092a.663.663,0,0,1-.768.487,6.711,6.711,0,0,1-1.647-1.436c-.508-.546-1-1.109-1.489-1.674-.978-1.131-1.941-2.276-2.941-3.392-.5-.558-1.01-1.109-1.553-1.633a9.081,9.081,0,0,0-.862-.744,2.579,2.579,0,0,0-.508-.3.813.813,0,0,0-.329-.075.441.441,0,0,0-.346.186,2,2,0,0,0-.153,1.194,9.759,9.759,0,0,0,.18,1.125,24.512,24.512,0,0,0,2.388,6.332,4.466,4.466,0,0,0,.707.939.827.827,0,0,0,.661.266,2.022,2.022,0,0,0,.6-.17,2.78,2.78,0,0,0,1.507-1.833,1.019,1.019,0,0,0-.087-.7.709.709,0,0,0-.289-.278.756.756,0,0,0-.385-.083,4.285,4.285,0,0,0-1.161.276c-.719.254-1.406.557-2.093.855s-1.368.6-2.055.881c-.343.137-.689.271-1.033.371a2.736,2.736,0,0,1-.5.107.74.74,0,0,1-.41-.086c-.561-.284-.94-.98-1.5-1.534a1.822,1.822,0,0,0-1.146-.584.584.584,0,0,0-.46.149.613.613,0,0,0-.155.458,2.965,2.965,0,0,0,.111.609c.1.338.145.763.051.779-.106.1-.54.033-.856-.048a5.729,5.729,0,0,1-1.889-.987,11.069,11.069,0,0,0-.953-.643,1.876,1.876,0,0,0-1.25-.3,4.637,4.637,0,0,0-1.917,1.391,5.193,5.193,0,0,1-.8.693c-.134.082-.258.11-.289.079a2.923,2.923,0,0,1-.429-.264,17.479,17.479,0,0,1-1.688-1.42,19.245,19.245,0,0,1-2.892-3.333A3.735,3.735,0,0,1,160,209c0-.67.689-.977,1.407-1.09a12.207,12.207,0,0,1,4.386.062,10.819,10.819,0,0,1,2.118.6,4.449,4.449,0,0,1,.947.514c.276.2.522.493.442.759s-.4.494-.713.652-.679.276-1.023.411a20.285,20.285,0,0,1-2.137.629,49.427,49.427,0,0,1-8.9.85l0,.052a46.961,46.961,0,0,0,8.956-.653,20.494,20.494,0,0,0,2.174-.609c.353-.133.71-.241,1.063-.412a1.572,1.572,0,0,0,.883-.836,1.111,1.111,0,0,0-.546-1.106,4.824,4.824,0,0,0-1.012-.568,11.152,11.152,0,0,0-2.183-.652,12.573,12.573,0,0,0-4.537-.12,3.177,3.177,0,0,0-1.139.382,1.384,1.384,0,0,0-.65,1.1,4.138,4.138,0,0,0,.77,2.227,18.527,18.527,0,0,0,2.951,3.451A18.055,18.055,0,0,0,165,216.12a3.314,3.314,0,0,0,.526.32.838.838,0,0,0,.77-.112,5.519,5.519,0,0,0,.9-.768,4.375,4.375,0,0,1,1.646-1.242c.55-.082,1.192.433,1.783.854a6.237,6.237,0,0,0,2.067,1.076,1.669,1.669,0,0,0,1.325-.049.811.811,0,0,0,.259-.753,3.78,3.78,0,0,0-.12-.591,2.7,2.7,0,0,1-.1-.491c0-.066.018-.092,0-.066s0,0,.064,0a1.32,1.32,0,0,1,.8.429c.512.473.857,1.2,1.648,1.62a1.259,1.259,0,0,0,.675.131,3.281,3.281,0,0,0,.6-.129c.374-.112.726-.252,1.077-.393.7-.287,1.381-.6,2.064-.9s1.364-.606,2.054-.854a4.007,4.007,0,0,1,1.012-.255c.241-.025.373.195.309.516a2.368,2.368,0,0,1-1.242,1.53,1.567,1.567,0,0,1-.471.141c-.1.028-.205-.044-.336-.155a4.1,4.1,0,0,1-.646-.842,21.816,21.816,0,0,1-1.805-4.054,21.516,21.516,0,0,1-.617-2.138,9.752,9.752,0,0,1-.189-1.088,1.84,1.84,0,0,1,.087-1c.1-.2.531.053.8.247a8.951,8.951,0,0,1,.841.714c.538.511,1.05,1.055,1.553,1.6,1.007,1.1,1.98,2.24,2.969,3.363.495.561.992,1.121,1.508,1.666a6.62,6.62,0,0,0,1.735,1.467.833.833,0,0,0,.962-.588c.143-.351.131-.794.328-1.017.092-.087.276-.02.431.061a3.906,3.906,0,0,1,.463.289c.3.216.592.45.889.679a6.094,6.094,0,0,0,1.954,1.164,1.143,1.143,0,0,0,1.122-.353,5.68,5.68,0,0,0,.666-.932c.2-.306.4-.636.7-.734a2.178,2.178,0,0,1,1.042-.073,3.873,3.873,0,0,1,1.915.943,12.507,12.507,0,0,1,2.522,3.606,25.812,25.812,0,0,1,1.623,4.144,14.824,14.824,0,0,1,.727,4.338,1.889,1.889,0,0,1-.235.943l-.063.063c-.018.01.017,0,.017,0a.317.317,0,0,1-.1-.069,2.206,2.206,0,0,1-.319-.384,15.212,15.212,0,0,1-1.037-1.941,66.693,66.693,0,0,1-3.049-8.4c-.416-1.432-.8-2.877-1.07-4.339a12.962,12.962,0,0,1-.25-2.2,1.942,1.942,0,0,1,.194-1,.32.32,0,0,1,.377-.106,4.115,4.115,0,0,1,.535.1,19.538,19.538,0,0,1,4.088,1.745q1.973,1.062,3.854,2.289Z" fill="#263238"/>
          <g id="Group_440" data-name="Group 440">
            <g id="Group_438" data-name="Group 438">
              <path id="Path_967" data-name="Path 967" d="M250.863,198.218h0a.928.928,0,0,0,1.634.172h0a.929.929,0,0,1,1.688.359h0a.929.929,0,0,0,1.563.508h0a.93.93,0,0,1,1.577.7h0a.929.929,0,0,0,1.423.822h0a.929.929,0,0,1,1.4,1.014h0a.929.929,0,0,0,1.222,1.1h0a.929.929,0,0,1,1.154,1.282h0a.93.93,0,0,0,.966,1.33h0a.929.929,0,0,1,.863,1.494h0a.93.93,0,0,0,.668,1.5h0a.929.929,0,0,1,.534,1.641h0a.928.928,0,0,0,.341,1.607h0a.929.929,0,0,1,.181,1.716h0a.929.929,0,0,0,0,1.644h0a.929.929,0,0,1-.181,1.716h0a.929.929,0,0,0-.341,1.608h0a.929.929,0,0,1-.534,1.641h0a.929.929,0,0,0-.668,1.5h0a.93.93,0,0,1-.863,1.5h0a.929.929,0,0,0-.966,1.329h0a.929.929,0,0,1-1.154,1.283h0a.929.929,0,0,0-1.222,1.1h0a.929.929,0,0,1-1.4,1.014h0a.929.929,0,0,0-1.423.822h0a.929.929,0,0,1-1.577.7h0a.929.929,0,0,0-1.563.508h0a.929.929,0,0,1-1.688.359h0a.928.928,0,0,0-1.634.172h0a.93.93,0,0,1-1.726,0h0a.929.929,0,0,0-1.635-.172h0a.929.929,0,0,1-1.687-.359h0a.929.929,0,0,0-1.563-.508h0a.929.929,0,0,1-1.577-.7h0a.929.929,0,0,0-1.423-.822h0a.929.929,0,0,1-1.4-1.014h0a.929.929,0,0,0-1.222-1.1h0a.929.929,0,0,1-1.154-1.283h0a.929.929,0,0,0-.966-1.329h0a.93.93,0,0,1-.863-1.5h0a.929.929,0,0,0-.669-1.5h0a.929.929,0,0,1-.533-1.641h0a.929.929,0,0,0-.342-1.608h0a.929.929,0,0,1-.18-1.716h0a.929.929,0,0,0,0-1.644h0a.929.929,0,0,1,.18-1.716h0a.928.928,0,0,0,.342-1.607h0a.929.929,0,0,1,.533-1.641h0a.93.93,0,0,0,.669-1.5h0a.929.929,0,0,1,.863-1.494h0a.93.93,0,0,0,.966-1.33h0a.929.929,0,0,1,1.154-1.282h0a.93.93,0,0,0,1.222-1.1h0a.929.929,0,0,1,1.4-1.014h0a.929.929,0,0,0,1.423-.822h0a.93.93,0,0,1,1.577-.7h0a.929.929,0,0,0,1.563-.508h0a.929.929,0,0,1,1.687-.359h0a.929.929,0,0,0,1.635-.172h0A.93.93,0,0,1,250.863,198.218Z" fill="#84cc16"/>
              <circle id="Ellipse_1129" data-name="Ellipse 1129" cx="14.397" cy="14.397" r="14.397" transform="translate(230.967 207.057) rotate(-24.194)" fill="#fff"/>
              <circle id="Ellipse_1130" data-name="Ellipse 1130" cx="13.225" cy="13.225" r="13.225" transform="translate(232.514 207.651) rotate(-24.213)" fill="none" stroke="#84cc16" stroke-miterlimit="10" stroke-width="0.5"/>
            </g>
            <rect id="Rectangle_265" data-name="Rectangle 265" width="43.718" height="8.28" transform="translate(228.141 210.149)" fill="#fff"/>
            <g id="Group_439" data-name="Group 439">
              <path id="Path_968" data-name="Path 968" d="M233.892,214.372a2.408,2.408,0,0,1,2.408-2.362,2.455,2.455,0,0,1,1.515.511.388.388,0,0,1,.066.525.384.384,0,0,1-.525.073,1.632,1.632,0,0,0-1.056-.361,1.734,1.734,0,0,0-1.181.472,1.617,1.617,0,0,0-.479,1.142,1.594,1.594,0,0,0,.479,1.142,1.738,1.738,0,0,0,1.181.472,1.652,1.652,0,0,0,1.056-.361.4.4,0,0,1,.525.072.387.387,0,0,1-.066.525,2.456,2.456,0,0,1-1.515.512A2.4,2.4,0,0,1,233.892,214.372Z" fill="#84cc16"/>
              <path id="Path_969" data-name="Path 969" d="M239.159,216.373V212.5a.356.356,0,0,1,.361-.361h2.146a.364.364,0,0,1,.361.361.37.37,0,0,1-.361.367h-1.778v1.2h1.528a.364.364,0,0,1,0,.728h-1.528v1.207h1.778a.365.365,0,0,1,0,.729H239.54c-.013,0-.013-.006-.013-.006l-.007.006A.36.36,0,0,1,239.159,216.373Z" fill="#84cc16"/>
              <path id="Path_970" data-name="Path 970" d="M246.224,216.19a.363.363,0,0,1-.23.459.615.615,0,0,1-.144.019h-.007a.477.477,0,0,1-.256-.072.657.657,0,0,1-.21-.23,1.758,1.758,0,0,1-.138-.787.559.559,0,0,0-.078-.282.622.622,0,0,0-.2-.191,1.277,1.277,0,0,0-.367-.157h-.775v1.424a.365.365,0,0,1-.367.361.36.36,0,0,1-.361-.361V212.5a.355.355,0,0,1,.361-.361h1.174a1.4,1.4,0,0,1,.892,2.487.991.991,0,0,1,.23.243,1.243,1.243,0,0,1,.217.708,1.642,1.642,0,0,0,.026.387A.356.356,0,0,1,246.224,216.19Zm-.919-2.638a.677.677,0,0,0-.676-.683h-.807v1.352h.807A.674.674,0,0,0,245.3,213.552Z" fill="#84cc16"/>
              <path id="Path_971" data-name="Path 971" d="M249.968,212.869h-1.043v3.5a.356.356,0,0,1-.361.361.36.36,0,0,1-.361-.361v-3.5h-1.037a.364.364,0,0,1-.36-.367.355.355,0,0,1,.36-.361h2.8a.36.36,0,0,1,.361.361A.369.369,0,0,1,249.968,212.869Z" fill="#84cc16"/>
              <path id="Path_972" data-name="Path 972" d="M251.462,212.5a.356.356,0,0,1,.361-.361.365.365,0,0,1,.367.361v3.871a.366.366,0,0,1-.367.361.356.356,0,0,1-.361-.361Z" fill="#84cc16"/>
              <path id="Path_973" data-name="Path 973" d="M253.42,216.373V212.5a.359.359,0,0,1,.36-.361h2.146a.364.364,0,0,1,0,.728h-1.778v1.2h1.529a.364.364,0,0,1,0,.728h-1.529v1.575a.366.366,0,0,1-.368.361A.359.359,0,0,1,253.42,216.373Z" fill="#84cc16"/>
              <path id="Path_974" data-name="Path 974" d="M257.439,212.5a.356.356,0,0,1,.361-.361.366.366,0,0,1,.368.361v3.871a.366.366,0,0,1-.368.361.356.356,0,0,1-.361-.361Z" fill="#84cc16"/>
              <path id="Path_975" data-name="Path 975" d="M259.4,216.373V212.5a.356.356,0,0,1,.361-.361H261.9a.364.364,0,0,1,.362.361.37.37,0,0,1-.362.367h-1.777v1.2h1.528a.364.364,0,0,1,0,.728h-1.528v1.207H261.9a.365.365,0,0,1,0,.729h-2.126c-.012,0-.012-.006-.012-.006l-.007.006A.36.36,0,0,1,259.4,216.373Z" fill="#84cc16"/>
              <path id="Path_976" data-name="Path 976" d="M263.292,216.373V212.5a.355.355,0,0,1,.36-.361h.775a2.3,2.3,0,0,1,0,4.593h-.775A.359.359,0,0,1,263.292,216.373Zm.728-.368h.407a1.568,1.568,0,0,0,0-3.136h-.407Z" fill="#84cc16"/>
            </g>
          </g>
        </g>
      </g>
    </g>
    <g id="Group_450" data-name="Group 450">
      <g id="Group_448" data-name="Group 448">
        <g id="Group_445" data-name="Group 445">
          <path id="Path_977" data-name="Path 977" d="M399.952,293.257l9.014-10.847,13.733,3.215-16.82-50.131-22.747,7.632Z" fill="#455a64"/>
          <path id="Path_978" data-name="Path 978" d="M391.475,267.993l-8.344-24.867,22.747-7.632Z" fill="#37474f"/>
          <g id="Group_444" data-name="Group 444">
            <path id="Path_979" data-name="Path 979" d="M402.937,236.485l16.209,48.309.495.114-16.293-48.56Z" fill="#fff"/>
            <path id="Path_980" data-name="Path 980" d="M385.662,242.281l16.293,48.56.335-.393L386.081,242.14Z" fill="#fff"/>
          </g>
        </g>
        <g id="Group_447" data-name="Group 447">
          <path id="Path_981" data-name="Path 981" d="M357.34,293.175l13.52-4.017,9.637,10.3,15.645-57.681-23.157-6.281Z" fill="#455a64"/>
          <g id="Group_446" data-name="Group 446">
            <path id="Path_982" data-name="Path 982" d="M393.144,240.965,378,296.791l.348.37,15.211-56.082Z" fill="#fff"/>
            <path id="Path_983" data-name="Path 983" d="M375.558,236.2l-15.211,56.082.5-.141,15.141-55.826Z" fill="#fff"/>
          </g>
        </g>
      </g>
      <g id="Group_449" data-name="Group 449">
        <path id="Path_984" data-name="Path 984" d="M391.979,179.622h0a2.11,2.11,0,0,0,3.712.39h0a2.11,2.11,0,0,1,3.832.815h0a2.11,2.11,0,0,0,3.55,1.153h0a2.11,2.11,0,0,1,3.579,1.594h0a2.11,2.11,0,0,0,3.233,1.866h0a2.109,2.109,0,0,1,3.169,2.3h0a2.11,2.11,0,0,0,2.774,2.5h0a2.11,2.11,0,0,1,2.622,2.912h0a2.11,2.11,0,0,0,2.194,3.02h0a2.11,2.11,0,0,1,1.959,3.393h0a2.11,2.11,0,0,0,1.518,3.41h0a2.11,2.11,0,0,1,1.211,3.726h0a2.11,2.11,0,0,0,.776,3.651h0a2.11,2.11,0,0,1,.409,3.9h0a2.11,2.11,0,0,0,0,3.733h0a2.11,2.11,0,0,1-.409,3.9h0a2.11,2.11,0,0,0-.776,3.652h0a2.11,2.11,0,0,1-1.211,3.726h0a2.11,2.11,0,0,0-1.518,3.41h0a2.11,2.11,0,0,1-1.959,3.393h0a2.109,2.109,0,0,0-2.194,3.019h0a2.11,2.11,0,0,1-2.622,2.912h0a2.11,2.11,0,0,0-2.774,2.5h0a2.109,2.109,0,0,1-3.169,2.3h0a2.11,2.11,0,0,0-3.233,1.867h0a2.11,2.11,0,0,1-3.579,1.593h0a2.11,2.11,0,0,0-3.55,1.154h0a2.109,2.109,0,0,1-3.832.814h0a2.11,2.11,0,0,0-3.712.391h0a2.11,2.11,0,0,1-3.918,0h0a2.111,2.111,0,0,0-3.713-.391h0a2.109,2.109,0,0,1-3.832-.814h0a2.11,2.11,0,0,0-3.55-1.154h0a2.11,2.11,0,0,1-3.579-1.593h0a2.11,2.11,0,0,0-3.233-1.867h0a2.109,2.109,0,0,1-3.169-2.3h0a2.11,2.11,0,0,0-2.774-2.5h0a2.11,2.11,0,0,1-2.622-2.912h0a2.109,2.109,0,0,0-2.194-3.019h0a2.11,2.11,0,0,1-1.959-3.393h0a2.11,2.11,0,0,0-1.518-3.41h0a2.11,2.11,0,0,1-1.211-3.726h0a2.11,2.11,0,0,0-.776-3.652h0a2.11,2.11,0,0,1-.409-3.9h0a2.11,2.11,0,0,0,0-3.733h0a2.11,2.11,0,0,1,.409-3.9h0a2.11,2.11,0,0,0,.776-3.651h0a2.11,2.11,0,0,1,1.211-3.726h0a2.11,2.11,0,0,0,1.518-3.41h0a2.11,2.11,0,0,1,1.959-3.393h0a2.11,2.11,0,0,0,2.194-3.02h0a2.11,2.11,0,0,1,2.622-2.912h0a2.11,2.11,0,0,0,2.774-2.5h0a2.11,2.11,0,0,1,3.169-2.3h0a2.11,2.11,0,0,0,3.233-1.866h0a2.11,2.11,0,0,1,3.579-1.594h0a2.11,2.11,0,0,0,3.55-1.153h0a2.11,2.11,0,0,1,3.832-.815h0a2.111,2.111,0,0,0,3.713-.39h0A2.11,2.11,0,0,1,391.979,179.622Z" fill="#84cc16"/>
        <circle id="Ellipse_1131" data-name="Ellipse 1131" cx="32.693" cy="32.693" r="32.693" transform="translate(349.875 239.049) rotate(-74.739)" fill="#fff"/>
        <path id="Path_985" data-name="Path 985" d="M390.019,246.521a30.407,30.407,0,1,1,30.408-30.406A30.441,30.441,0,0,1,390.019,246.521Zm0-60.063a29.657,29.657,0,1,0,29.658,29.657A29.69,29.69,0,0,0,390.019,186.458Z" fill="#84cc16"/>
      </g>
      <path id="Path_986" data-name="Path 986" d="M386.642,234.312l-17.922-17.923,7.356-7.357L386.642,219.6l33.646-33.646,7.355,7.356Z" fill="#455a64"/>
    </g>
    <g id="Group_483" data-name="Group 483">
      <g id="Group_451" data-name="Group 451">
        <path id="Path_987" data-name="Path 987" d="M44.268,438.651H171.494L146.127,291.089H50.991Z" fill="#dbdbdb"/>
        <path id="Path_988" data-name="Path 988" d="M44.268,438.651H55.424l6.26-147.562H50.991Z" fill="#a6a6a6"/>
      </g>
      <g id="Group_458" data-name="Group 458">
        <path id="Path_989" data-name="Path 989" d="M144.094,314.092c15.912,32.98,53.653,87.487,69.457,73.283,23.639-21.246,38.723-67.181,44.7-85.748,3.349-10.406-49.609-26.166-52.562-16.724-4.2,13.425-10.585,41.4-14.632,45.446-2.133,2.132-19.974-21.514-33.316-32.591C138.505,281.79,139.01,303.555,144.094,314.092Z" fill="#eb9481"/>
        <g id="Group_455" data-name="Group 455">
          <path id="Path_990" data-name="Path 990" d="M269.47,279.23c-2.257,11.288-15.9,32.568-21.168,36.435s-42.328-17.067-43.141-23.722S215,246.811,224,239.261,271.808,267.536,269.47,279.23Z" fill="#eb9481"/>
          <g id="Group_452" data-name="Group 452">
            <path id="Path_991" data-name="Path 991" d="M205.949,284.194s-2.544-14.756-9-26.262c-5.424-9.674-14.573-23.427-9.48-26.539,10.456-6.389,33.259,27.917,33.259,27.917s7.631,16.75-2.168,24C212.418,287.853,205.949,284.194,205.949,284.194Z" fill="#eb9481"/>
          </g>
          <g id="Group_454" data-name="Group 454">
            <path id="Path_992" data-name="Path 992" d="M212.495,253.655c2.071,5.736,7.645.011,7.645.011s-6.037,10.175-1.615,15.263c4.276,4.893,10.766-2.261,11.238-2.767-.314.541-5.618,10.035-.647,14.691,5.17,4.833,10.452-3.466,10.791-4-.136.6-1.81,8.623,2.771,11.3,7.873,4.6,12.718-15.788,19.161-19.393,0,0,7.355,10.222,7.631,10.473,0,0,5.006-19.3-.341-27.719a6.369,6.369,0,0,0-7.512-2.687s2.3-6.045-1.5-9.833c-1.955-1.94-6.8-.538-6.8-.538s1.641-4.917-1.948-8.076c-2.856-2.531-7.269-.732-7.269-.732s-.615-5.452-4.372-7.089C232.165,219.237,208.07,241.368,212.495,253.655Z" fill="#eb9481"/>
            <g id="Group_453" data-name="Group 453">
              <path id="Path_993" data-name="Path 993" d="M243.366,229.823a.086.086,0,0,0-.089-.147c-9.7,5.345-18.721,14.189-23.47,24.267-.156.331.313.728.554.4C227.243,244.888,234.1,237.049,243.366,229.823Z" fill="#263238"/>
              <path id="Path_994" data-name="Path 994" d="M253.4,238.294c.1-.078-.027-.246-.146-.179-9.966,5.561-19.851,15.8-23.958,28.064-.141.421.154.939.353.467C233,258.7,245.028,244.756,253.4,238.294Z" fill="#263238"/>
              <path id="Path_995" data-name="Path 995" d="M239.916,277.8c4.392-11.605,12.062-20.634,21.274-28.775.12-.106-.042-.265-.167-.2-5.591,2.755-10.922,8.557-14.688,13.422a32.715,32.715,0,0,0-6.825,15.4C239.475,277.875,239.822,278.051,239.916,277.8Z" fill="#263238"/>
            </g>
            <path id="Path_996" data-name="Path 996" d="M219.936,253.7c-.186.4.6.232.425.636-.732,1.694-4.261,12.269-1.032,14.59,2.593,1.853,6.882-.344,8.2-1.834l3.311-3.747-1.807,4.672a20.5,20.5,0,0,0-1.416,6.475,7.318,7.318,0,0,0,1.841,5.693,4.18,4.18,0,0,0,5.205.765,12.643,12.643,0,0,0,4.379-4.581L242.1,271.3l-1.231,5.769a19.248,19.248,0,0,0-.409,4.89,7.917,7.917,0,0,0,1.34,4.369,3.766,3.766,0,0,0,3.684,1.479,8.338,8.338,0,0,0,3.833-2.649,65.615,65.615,0,0,0,5.961-8.364c.945-1.455,1.892-2.917,2.91-4.333a12.371,12.371,0,0,1,3.648-3.705,13.342,13.342,0,0,0-3.249,3.972c-.9,1.474-1.724,2.993-2.556,4.515a55.687,55.687,0,0,1-5.644,8.863,9.727,9.727,0,0,1-4.5,3.323,5.345,5.345,0,0,1-5.518-1.972,9.689,9.689,0,0,1-1.809-5.378,20.994,20.994,0,0,1,.376-5.451l1.832.7a14.516,14.516,0,0,1-5.118,5.463,6.05,6.05,0,0,1-4.032.75,6.844,6.844,0,0,1-3.57-1.915,9.232,9.232,0,0,1-2.333-7.207,22.2,22.2,0,0,1,1.668-7.1l1.5.925c-1.738,1.837-6.265,4.816-10.647,2.446C213,266.746,218.742,255.657,219.936,253.7Z" fill="#263238"/>
            <path id="Path_997" data-name="Path 997" d="M220.14,253.666a12.247,12.247,0,0,1-3.368,1.633,2.834,2.834,0,0,1-2.808-.592,5.768,5.768,0,0,1-1.286-3.013c-.2-1.211-.356-2.495-.46-3.827a9.748,9.748,0,0,0-.868,3.94,5.705,5.705,0,0,0,1.426,4.126,4.056,4.056,0,0,0,2.2,1.033,4.225,4.225,0,0,0,2.262-.423A6.548,6.548,0,0,0,220.14,253.666Z" fill="#263238"/>
          </g>
        </g>
        <g id="Group_457" data-name="Group 457">
          <path id="Path_998" data-name="Path 998" d="M202.523,286,258.217,322.5S227.5,391.018,207.33,391.4s-50.718-49.426-61.422-71.023-5.189-40.316,15.692-20.927c21.008,19.507,28.391,27.372,29.042,27.084C191.907,325.977,202.523,286,202.523,286Z" fill="#84cc16"/>
          <path id="Path_999" data-name="Path 999" d="M258.218,322.5s-21.3,47.519-40.076,63.628c-3.762,3.239-7.431,5.21-10.81,5.27-20.167.392-50.723-49.424-61.427-71.014-6.631-13.372-7.036-25.643-1.429-28.437,3.451-1.729,9.177.119,17.128,7.508,21,19.5,28.386,27.369,29.04,27.079,1.261-.556,11.884-40.527,11.884-40.527Z" fill="#84cc16"/>
          <g id="Group_456" data-name="Group 456">
            <path id="Path_1000" data-name="Path 1000" d="M245.479,329.2c-1.475-1.151-2.968-2.274-4.467-3.395q-4.552-3.4-9.128-6.771c-6.064-4.468-12.243-8.757-18.476-12.98-3.538-2.4-7.012-4.933-10.653-7.176a.162.162,0,0,0-.187.264c2.908,2.423,6.011,4.627,9.021,6.921s6.007,4.617,9.065,6.86Q229.761,319.6,239.062,326c1.737,1.2,3.441,2.475,5.23,3.6.918.575,1.788,1.222,2.715,1.784s1.9,1.06,2.809,1.652a.093.093,0,0,0,.108-.151C248.417,331.687,247,330.39,245.479,329.2Z" fill="#263238"/>
            <path id="Path_1001" data-name="Path 1001" d="M191.075,325.287a137.041,137.041,0,0,0-4.647,17.384c-.627,2.907-1.108,5.846-1.577,8.781a65.606,65.606,0,0,0-.914,8.8c0,.109.155.11.183.015.819-2.837,1.406-5.788,1.978-8.684.577-2.915,1.213-5.819,1.783-8.736,1.139-5.834,2.505-11.63,3.474-17.495A.143.143,0,0,0,191.075,325.287Z" fill="#263238"/>
          </g>
          <path id="Path_1002" data-name="Path 1002" d="M218.142,386.128c-3.762,3.239-7.431,5.21-10.81,5.27-20.167.392-50.723-49.424-61.427-71.014-6.631-13.372-7.036-25.643-1.429-28.437Z" opacity="0.1"/>
        </g>
      </g>
      <g id="Group_459" data-name="Group 459">
        <path id="Path_1003" data-name="Path 1003" d="M185.938,438.651H54.762c-.579-2.611,20.053-117.555,64.292-149.908,9.816-7.179,27.228-2.563,32.071,4.417C175.468,328.241,185.938,438.651,185.938,438.651Z" fill="#ebebeb"/>
        <path id="Path_1004" data-name="Path 1004" d="M116.147,289.6s11.583,50.874,12.777,55.264,5.48,93.783,5.48,93.783H53.572S71.759,324.647,116.147,289.6Z" fill="#84cc16"/>
        <path id="Path_1005" data-name="Path 1005" d="M151.125,293.16s5.061,38.956,5.667,41.256,17.174,104.235,17.174,104.235h12.6S175.581,320.785,151.125,293.16Z" fill="#84cc16"/>
      </g>
      <g id="Group_466" data-name="Group 466">
        <g id="Group_462" data-name="Group 462">
          <path id="Path_1006" data-name="Path 1006" d="M100.644,304.359C77,337.652,42.749,397.267,58.534,407.88c25.952,17.449,97.343,22.126,113.661,22.53,7.043.175,16.647-46.656,11.439-52.1s-79.941-2.515-80.9-7.027c-.542-2.557,8.6-26.152,13.228-54.458C121.3,284.186,107.309,294.974,100.644,304.359Z" fill="#eb9481"/>
          <g id="Group_461" data-name="Group 461">
            <path id="Path_1007" data-name="Path 1007" d="M171.1,375.722s21.317-2.2,35.324-2.977c7.815-.436,21.28.013,27.167,2.319,8.807,3.45,43.435,23.5,38.754,32-4.237,7.7-31.8-13.31-31.8-13.31s29.686,18.736,22.88,27.063-34.79-19.545-34.79-19.545,30.069,19.934,21.693,27.411c-6.33,5.651-33.1-18.165-33.1-18.165s25.726,17.312,19.467,23.4c-6.916,6.731-33-13.7-33-13.7-18.517,12.806-32.572,11.328-42.446,9.087C158.852,428.764,171.1,375.722,171.1,375.722Z" fill="#eb9481"/>
            <g id="Group_460" data-name="Group 460">
              <path id="Path_1008" data-name="Path 1008" d="M230.69,386.618c3.566,2.074,7.19,4.151,10.561,6.535s6.66,4.889,9.793,7.576c7.684,6.592,11.465,11.921,11.2,11.617-6.371-7.183-18.3-15.906-21.675-18.292s-6.607-4.928-9.97-7.311C230.51,386.683,230.6,386.569,230.69,386.618Z" fill="#263238"/>
              <path id="Path_1009" data-name="Path 1009" d="M221.858,398.63c4.44,2.847,8.952,5.509,13.267,8.553,4.294,3.028,10.17,7.476,14.245,10.792.314.255.078.814-.248.57-4.2-3.151-10.4-7.412-14.644-10.513-4.225-3.09-8.362-6.368-12.7-9.3C221.715,398.685,221.791,398.587,221.858,398.63Z" fill="#263238"/>
              <path id="Path_1010" data-name="Path 1010" d="M212.425,407.578c7.008,4,13.269,9.292,19.286,14.629.3.265-.023.34-.345.086-6.32-4.983-11.242-8.938-19.081-14.472C212.162,407.735,212.277,407.493,212.425,407.578Z" fill="#263238"/>
            </g>
          </g>
        </g>
        <path id="Path_1011" data-name="Path 1011" d="M171.133,372.934l-20.022,60.425S59.9,421.744,53.1,405.268s20.446-66.4,43.005-97.087c22.188-30.18,24.067-9.78,19.943,12.33s-11.891,47.872-10.583,49.618S171.133,372.934,171.133,372.934Z" fill="#84cc16"/>
        <g id="Group_465" data-name="Group 465">
          <path id="Path_1012" data-name="Path 1012" d="M139.97,424.757c.711-1.73,1.391-3.47,2.066-5.216q2.052-5.3,4.063-10.614c2.67-7.043,5.137-14.149,7.526-21.289,1.357-4.053,2.862-8.081,4.042-12.191a.162.162,0,0,0-.305-.11c-1.55,3.454-2.837,7.035-4.236,10.552s-2.828,7.029-4.165,10.578q-3.979,10.567-7.636,21.249c-.688,1.995-1.457,3.98-2.055,6-.307,1.04-.7,2.052-.987,3.1s-.51,2.113-.834,3.151a.092.092,0,0,0,.173.062C138.369,428.256,139.236,426.541,139.97,424.757Z" fill="#263238"/>
          <g id="Group_464" data-name="Group 464">
            <path id="Path_1013" data-name="Path 1013" d="M152.7,429.2l-1.592,4.155S60.959,422.286,53.1,405.268" fill="none" stroke="#263238" stroke-miterlimit="10" stroke-width="2"/>
            <g id="Group_463" data-name="Group 463">
              <path id="Path_1014" data-name="Path 1014" d="M170.352,375.291l.781-2.357s-64.842-.619-65.663-2.8,8.907-41.285,8.907-41.285" fill="none" stroke="#263238" stroke-miterlimit="10" stroke-width="2"/>
              <path id="Path_1015" data-name="Path 1015" d="M115.878,334.288a91.573,91.573,0,0,1-4.882,8.5" fill="none" stroke="#263238" stroke-miterlimit="10" stroke-width="0.75"/>
            </g>
          </g>
        </g>
      </g>
      <g id="Group_482" data-name="Group 482">
        <g id="Group_468" data-name="Group 468">
          <g id="Group_467" data-name="Group 467">
            <path id="Path_1016" data-name="Path 1016" d="M144.767,311.055c-7.609,2.166-21.342-8.99-26.987-18.279-.383-.639,1.148-26.883.911-32.114-.054-1.074,33.174,6.488,33.174,6.488s-2.73,11.113-2.261,20.231C149.651,288.143,152.12,308.956,144.767,311.055Z" fill="#eb9481"/>
          </g>
          <path id="Path_1017" data-name="Path 1017" d="M118.232,277.1c15.531,10.966,30.659,6.755,31.341,6.558a90.979,90.979,0,0,1,2.295-16.507s-33.232-7.563-33.175-6.488C118.8,263.12,118.526,270.2,118.232,277.1Z" fill="#263238"/>
        </g>
        <g id="Group_481" data-name="Group 481">
          <g id="Group_470" data-name="Group 470">
            <g id="Group_469" data-name="Group 469">
              <path id="Path_1018" data-name="Path 1018" d="M150.109,242.126c.851,7.744,7.049,13.415,13.842,12.668s11.611-7.63,10.759-15.373-7.049-13.415-13.842-12.668S149.257,234.383,150.109,242.126Z" fill="#455a64"/>
            </g>
            <path id="Path_1019" data-name="Path 1019" d="M146.176,243.053c.948,8.615,7.842,14.924,15.4,14.093s12.916-8.488,11.969-17.1-7.842-14.924-15.4-14.093S145.229,234.439,146.176,243.053Z" fill="#c7c7c7"/>
          </g>
          <g id="Group_471" data-name="Group 471">
            <path id="Path_1020" data-name="Path 1020" d="M114.1,221.239c-3.625,11.625,2.321,45.308,10.559,52.86,11.943,10.948,31.6,12.107,40.925-2.272,9.042-13.938.516-57.7-8.695-64.57C143.323,197.133,119.456,204.067,114.1,221.239Z" fill="#eb9481"/>
          </g>
          <g id="Group_477" data-name="Group 477">
            <g id="Group_472" data-name="Group 472">
              <path id="Path_1021" data-name="Path 1021" d="M142.1,242.387c-.034-.082-.157.142-.136.234.5,2.249.705,4.909-1.2,6.052-.059.036-.03.148.043.123C143.237,247.966,142.937,244.437,142.1,242.387Z" fill="#263238"/>
              <path id="Path_1022" data-name="Path 1022" d="M139.625,240.412c-3.692.42-2.58,7.773.841,7.384C143.832,247.412,142.72,240.059,139.625,240.412Z" fill="#263238"/>
            </g>
            <g id="Group_473" data-name="Group 473">
              <path id="Path_1023" data-name="Path 1023" d="M155.192,240.619c0-.09.194.081.206.174.272,2.289.969,4.864,3.144,5.309.068.014.079.13,0,.13C155.974,246.259,155.083,242.831,155.192,240.619Z" fill="#263238"/>
              <path id="Path_1024" data-name="Path 1024" d="M156.866,237.932c3.622-.832,5.02,6.472,1.665,7.243C155.229,245.935,153.831,238.63,156.866,237.932Z" fill="#263238"/>
            </g>
            <path id="Path_1025" data-name="Path 1025" d="M136.214,237.488a28.978,28.978,0,0,0,2.7-1.434,4.93,4.93,0,0,0,2.47-1.986,1.574,1.574,0,0,0-.535-1.845c-1.251-.809-2.681-.435-3.946.191a5.723,5.723,0,0,0-2.893,2.944A1.677,1.677,0,0,0,136.214,237.488Z" fill="#263238"/>
            <path id="Path_1026" data-name="Path 1026" d="M159.15,233.8a29.1,29.1,0,0,1-3.037-.316,4.928,4.928,0,0,1-3.036-.914,1.572,1.572,0,0,1-.2-1.91c.855-1.22,2.322-1.41,3.729-1.306A5.728,5.728,0,0,1,160.4,231,1.678,1.678,0,0,1,159.15,233.8Z" fill="#263238"/>
            <path id="Path_1027" data-name="Path 1027" d="M143.345,263.74c.626.451,1.282,1.1,2.119,1.048a6.086,6.086,0,0,0,2.361-.944.081.081,0,0,1,.117.1,3.1,3.1,0,0,1-2.7,1.674,2.45,2.45,0,0,1-2.1-1.744C143.087,263.749,143.254,263.675,143.345,263.74Z" fill="#263238"/>
            <g id="Group_475" data-name="Group 475">
              <g id="Group_474" data-name="Group 474">
                <path id="Path_1028" data-name="Path 1028" d="M144.708,256.558a7.838,7.838,0,0,0,5.7,2.668,9.875,9.875,0,0,0,2.81-.294,2.828,2.828,0,0,0,.523-.142c.164-.045.311-.088.488-.152a.574.574,0,0,0,.38-.579l0-.017a1.09,1.09,0,0,0-.057-.23l0-.017-.035-.2c-.217-1.761-.791-4.4-.791-4.4.689.224,4.179,1.2,3.989.291-1.6-7.517-3.38-15.876-6.56-23.018a.213.213,0,0,0-.407.121c1.252,7.285,3.777,14.3,5.151,21.6a13.75,13.75,0,0,0-3.829-.557c-.238.109,1.2,5.085,1.234,5.884a.29.29,0,0,1,0,.086c-2.89.822-5.245.268-8.4-1.278C144.7,256.217,144.544,256.4,144.708,256.558Z" fill="#263238"/>
              </g>
            </g>
            <g id="Group_476" data-name="Group 476">
              <path id="Path_1029" data-name="Path 1029" d="M152.047,258.2a9.316,9.316,0,0,1-3.253,3.413,4.188,4.188,0,0,1-2.49.537c-1.892-.2-2.19-1.865-2.072-3.344a10.006,10.006,0,0,1,.485-2.31A12.046,12.046,0,0,0,152.047,258.2Z" fill="#263238"/>
              <path id="Path_1030" data-name="Path 1030" d="M148.794,261.612a4.188,4.188,0,0,1-2.49.537c-1.892-.2-2.19-1.865-2.072-3.344C146.212,258.71,148.342,259.741,148.794,261.612Z" fill="#ff99ba"/>
            </g>
          </g>
          <g id="Group_478" data-name="Group 478">
            <path id="Path_1031" data-name="Path 1031" d="M115.071,250.806c8.408-1.629,7.139-17.213,7.139-17.213s14-5.113,14.031-16.387c0,0,15.375,6.149,25.414.189s5.458-17.722,3.768-20.1-6.747,3.6-6.747,3.6-1.994-6.771-3.972-7.123-3.187,4.2-3.187,4.2-14.775-2.021-27.311.734-16.362,16.644-16.362,16.644-6.467,2.711-7.754,7.846S109.711,251.844,115.071,250.806Z" fill="#263238"/>
            <path id="Path_1032" data-name="Path 1032" d="M118.829,234.345c11.455-.64,17.457-9.473,17.046-20.486a.107.107,0,0,1,.212-.024c1.574,10.032-5.626,22.915-17.271,21.024A.261.261,0,0,1,118.829,234.345Z" fill="#263238"/>
            <path id="Path_1033" data-name="Path 1033" d="M108.108,215.087a.12.12,0,0,1,.116.207c-2.851,2.045-6.227,3.813-7.884,7.081-2,3.946-.572,8.354,1.163,12.08,2.688,5.771,7.309,13.053,13.406,15.587.351.146.113.661-.238.535-7.231-2.6-12.954-12.1-15.207-19.066C96.94,223.71,101.048,218.214,108.108,215.087Z" fill="#263238"/>
            <path id="Path_1034" data-name="Path 1034" d="M149.074,218c5.484,2.03,12.816.769,17-3.518,5.093-5.224,2.559-11.762-1.059-16.924-.178-.254.167-.629.409-.394,4.423,4.306,6.141,11.795,2.144,16.979-4.13,5.358-12.783,6.852-18.831,4.622C148.228,218.577,148.57,217.811,149.074,218Z" fill="#263238"/>
          </g>
          <g id="Group_479" data-name="Group 479">
            <path id="Path_1035" data-name="Path 1035" d="M121.126,248.7s-7.759-10.772-12.658-7.991,1.043,18.472,6.868,20.548a5.9,5.9,0,0,0,7.854-3.279Z" fill="#eb9481"/>
            <path id="Path_1036" data-name="Path 1036" d="M110.283,245.167a.08.08,0,0,0-.028.156c4.086,1.589,6.278,5.327,7.831,9.213-1.229-1.487-2.886-2.288-4.881-.821-.1.077,0,.242.113.216a3.624,3.624,0,0,1,4.008,1.209,17.465,17.465,0,0,1,1.956,3.2c.195.36.849.157.7-.26-.01-.031-.023-.062-.034-.093C119.982,252.8,115.853,245.611,110.283,245.167Z" fill="#263238"/>
          </g>
          <g id="Group_480" data-name="Group 480">
            <path id="Path_1037" data-name="Path 1037" d="M112.654,241.094s-4.2-16.726-.93-26.963c3.639-11.4,18.662-21.527,39.793-16.16,0,0-24.225.669-32.964,15.694-4.019,6.911-.165,26.857-.165,26.857Z" fill="#c7c7c7"/>
            <path id="Path_1038" data-name="Path 1038" d="M130.061,246.779c1.649,8.611-3.139,16.764-10.694,18.211s-15.016-4.361-16.664-12.972,3.138-16.765,10.693-18.212S128.412,238.167,130.061,246.779Z" fill="#c7c7c7"/>
            <path id="Path_1039" data-name="Path 1039" d="M125.982,247.053c1.483,7.741-2.821,15.07-9.612,16.37s-13.5-3.92-14.98-11.661,2.822-15.07,9.613-16.37S124.5,239.313,125.982,247.053Z" fill="#455a64"/>
          </g>
        </g>
      </g>
    </g>
    <g id="Group_486" data-name="Group 486">
      <g id="Group_484" data-name="Group 484">
        <rect id="Rectangle_266" data-name="Rectangle 266" width="133.473" height="5.986" transform="translate(167.272 433.316)" fill="#455a64"/>
        <rect id="Rectangle_267" data-name="Rectangle 267" width="67.179" height="5.986" transform="translate(233.566 433.316)" fill="#37474f"/>
      </g>
      <g id="Group_485" data-name="Group 485">
        <path id="Path_1040" data-name="Path 1040" d="M237.641,439.3H367.721l17.008-88.346H254.649Z" fill="#37474f"/>
        <path id="Path_1041" data-name="Path 1041" d="M242.933,439.3H373.012L390.02,350.95H259.94Z" fill="#455a64"/>
        <path id="Path_1042" data-name="Path 1042" d="M308.558,395.124a7.14,7.14,0,0,0,7.225,7.917,8.815,8.815,0,0,0,8.611-7.917,7.139,7.139,0,0,0-7.225-7.918A8.816,8.816,0,0,0,308.558,395.124Z" fill="#fff"/>
      </g>
    </g>
    <g id="Group_493" data-name="Group 493">
      <g id="Group_488" data-name="Group 488">
        <path id="Path_1043" data-name="Path 1043" d="M416.789,359.425c13.06,12.786,15.252,32.566,12.5,49.891-.072.394-.68.286-.68-.083,0-3.944.119-7.853.108-11.749-.072-.179-.132-.345-.2-.524-3.408-2.479-6.542-5.279-8.484-9.116-2.181-4.289-3.038-9.127-4.707-13.607-.155-.429.3-.3.6-.082,7.944,5.858,10.476,12.163,12.756,20.588a70.092,70.092,0,0,0-1.382-13.119c-1.716-7.995-5.112-15.919-10.856-21.853C416.229,359.544,416.563,359.2,416.789,359.425Z" fill="#263238"/>
        <g id="Group_487" data-name="Group 487">
          <path id="Path_1044" data-name="Path 1044" d="M414.334,360.916c-2.246.076-3.654,3.667-5.406,4.714a1.683,1.683,0,0,1-2.479-.389c-1.735-2.422.646-5.41,2.884-7.081-1.6.658-2.929,1.815-4.655,2.143a1.623,1.623,0,0,1-2.1-1.258c-.761-3.3,3.38-4.771,6.221-4.84-1.377-.958-5.325-3.561-3.228-4.841,2.126-1.285,6.758,2.437,8.27,3.663,2.22,1.8,4.869,4.495,4.969,7.313C418.939,363.63,416.064,361.605,414.334,360.916Z" fill="#84cc16"/>
          <path id="Path_1045" data-name="Path 1045" d="M414.334,360.916c-2.246.076-3.654,3.667-5.406,4.714a1.683,1.683,0,0,1-2.479-.389c-1.735-2.422.646-5.41,2.884-7.081-1.6.658-2.929,1.815-4.655,2.143a1.623,1.623,0,0,1-2.1-1.258c-.761-3.3,3.38-4.771,6.221-4.84-1.377-.958-5.325-3.561-3.228-4.841,2.126-1.285,6.758,2.437,8.27,3.663,2.22,1.8,4.869,4.495,4.969,7.313C418.939,363.63,416.064,361.605,414.334,360.916Z" opacity="0.1"/>
          <path id="Path_1046" data-name="Path 1046" d="M414.985,361.469c-2.873-1.3-8.391.574-8.861-.513-.951-2.213,3.459-3.731,5.839-4.025-2.192-.594-6.392-1.54-6.263-3.654.158-2.582,6.442-.362,9.623,2.078,4.008,3.073,3.982,6.037,3.319,6.631C417.733,362.8,415.459,361.685,414.985,361.469Z" fill="#84cc16"/>
        </g>
      </g>
      <g id="Group_490" data-name="Group 490">
        <path id="Path_1047" data-name="Path 1047" d="M446.531,358.159c-13.536,12.28-16.479,31.962-14.388,49.38.057.4.668.312.682-.057.15-3.942.18-7.852.34-11.745.078-.176.144-.34.222-.516,3.5-2.347,6.738-5.026,8.825-8.787,2.342-4.2,3.383-9.005,5.221-13.418.171-.423-.291-.315-.6-.1C438.673,378.463,435.9,384.668,433.3,393a70.039,70.039,0,0,1,1.88-13.057c2.019-7.925,5.714-15.714,11.679-21.425C447.086,358.3,446.766,357.942,446.531,358.159Z" fill="#263238"/>
        <g id="Group_489" data-name="Group 489">
          <path id="Path_1048" data-name="Path 1048" d="M448.927,359.742c2.242.161,3.513,3.8,5.223,4.917a1.683,1.683,0,0,0,2.492-.295c1.827-2.354-.439-5.43-2.612-7.185,1.575.718,2.858,1.925,4.57,2.318a1.623,1.623,0,0,0,2.148-1.177c.885-3.271-3.2-4.9-6.033-5.073,1.412-.9,5.457-3.356,3.41-4.715-2.076-1.365-6.846,2.178-8.4,3.346-2.288,1.716-5.037,4.306-5.244,7.119C444.223,362.28,447.173,360.366,448.927,359.742Z" fill="#84cc16"/>
          <path id="Path_1049" data-name="Path 1049" d="M448.927,359.742c2.242.161,3.513,3.8,5.223,4.917a1.683,1.683,0,0,0,2.492-.295c1.827-2.354-.439-5.43-2.612-7.185,1.575.718,2.858,1.925,4.57,2.318a1.623,1.623,0,0,0,2.148-1.177c.885-3.271-3.2-4.9-6.033-5.073,1.412-.9,5.457-3.356,3.41-4.715-2.076-1.365-6.846,2.178-8.4,3.346-2.288,1.716-5.037,4.306-5.244,7.119C444.223,362.28,447.173,360.366,448.927,359.742Z" opacity="0.1"/>
          <path id="Path_1050" data-name="Path 1050" d="M448.256,360.271c2.921-1.2,8.364.892,8.874-.176,1.035-2.175-3.314-3.86-5.682-4.244,2.214-.511,6.447-1.3,6.4-3.413-.059-2.586-6.424-.607-9.7,1.71-4.121,2.918-4.208,5.882-3.568,6.5C445.459,361.5,447.774,360.468,448.256,360.271Z" fill="#84cc16"/>
        </g>
      </g>
      <g id="Group_492" data-name="Group 492">
        <path id="Path_1051" data-name="Path 1051" d="M432.689,390.59a133.261,133.261,0,0,1-4.2,19.416.483.483,0,0,1-.946-.19c.889-5.984,2.51-11.857,3.4-17.84a89.907,89.907,0,0,0,1.04-18.315c-.571-10.082-3.309-20.807-9.887-28.7-.145-.187.162-.451.311-.277,13.172,15.358,11.076,34.189,11.064,35.876,1.864-6.359,3.786-13.647,10.84-20.121.3-.279.542-.146.491.328-1.262,11.793-4.54,17.95-11.377,24.255C433.227,386.894,432.986,388.754,432.689,390.59Z" fill="#263238"/>
        <g id="Group_491" data-name="Group 491">
          <path id="Path_1052" data-name="Path 1052" d="M421.972,346.731c-2.369-1.052-5.638,1.965-7.982,2.171a1.942,1.942,0,0,1-2.376-1.653c-.581-3.386,3.392-5.287,6.556-5.895-1.992-.123-3.952.409-5.908-.119a1.872,1.872,0,0,1-1.547-2.364c.873-3.809,5.909-3.248,8.891-1.89-.947-1.686-3.732-6.375-.912-6.647,2.852-.263,5.785,5.93,6.736,7.963,1.4,2.987,2.79,7.115,1.475,10.089C425.384,351.865,423.419,348.317,421.972,346.731Z" fill="#84cc16"/>
          <path id="Path_1053" data-name="Path 1053" d="M421.972,346.731c-2.369-1.052-5.638,1.965-7.982,2.171a1.942,1.942,0,0,1-2.376-1.653c-.581-3.386,3.392-5.287,6.556-5.895-1.992-.123-3.952.409-5.908-.119a1.872,1.872,0,0,1-1.547-2.364c.873-3.809,5.909-3.248,8.891-1.89-.947-1.686-3.732-6.375-.912-6.647,2.852-.263,5.785,5.93,6.736,7.963,1.4,2.987,2.79,7.115,1.475,10.089C425.384,351.865,423.419,348.317,421.972,346.731Z" opacity="0.1"/>
          <path id="Path_1054" data-name="Path 1054" d="M422.368,347.633c-2.323-2.8-9-3.629-8.934-4.993.127-2.775,5.466-2.13,8.084-1.237-1.976-1.72-5.857-4.816-4.659-6.944,1.463-2.6,6.866,2.868,8.939,7,2.611,5.206,1.092,8.269.105,8.551C424.55,350.4,422.752,348.1,422.368,347.633Z" fill="#84cc16"/>
        </g>
      </g>
      <path id="Path_1055" data-name="Path 1055" d="M441.355,394.14l5.809,44.386h-35.35c.728-3.933,7.308-44.437,7.308-44.437Z" fill="#84cc16"/>
    </g>
  </g>
</svg>
